<svg xmlns="http://www.w3.org/2000/svg" xmlns:xlink="http://www.w3.org/1999/xlink" width="500" zoomAndPan="magnify" viewBox="0 0 375 269.999989" height="360" preserveAspectRatio="xMidYMid meet" version="1.0"><defs><clipPath id="993cd6fee0"><path d="M 0 1.640625 L 160.5 1.640625 L 160.5 268.386719 L 0 268.386719 Z M 0 1.640625 " clip-rule="nonzero"/></clipPath><clipPath id="f781f9b654"><path d="M 214.5 1.640625 L 375 1.640625 L 375 268.386719 L 214.5 268.386719 Z M 214.5 1.640625 " clip-rule="nonzero"/></clipPath></defs><g clip-path="url(#993cd6fee0)"><path fill="#42bfd0" d="M 80.804688 160.558594 C 71.398438 160.558594 62.410156 158.832031 54.027344 155.816406 C 54.761719 164.320312 56.304688 172.886719 58.71875 181.367188 C 63.621094 198.820312 72.511719 215.597656 84.457031 230.589844 C 96.4375 245.554688 111.730469 258.609375 129.53125 268.390625 C 109.734375 264 90.289062 255.507812 72.773438 243.25 C 55.308594 230.984375 39.546875 215.085938 27.558594 196.066406 C 15.515625 177.109375 6.882812 155.273438 2.777344 132.023438 C -0.4375 113.542969 -0.925781 94.289062 1.652344 75.046875 C 2.035156 70.007812 2.898438 65.113281 4.179688 60.378906 C 4.199219 60.304688 4.210938 60.222656 4.226562 60.148438 L 4.238281 60.152344 C 13.464844 26.488281 44.246094 1.640625 80.804688 1.640625 C 124.617188 1.640625 160.261719 37.289062 160.261719 81.101562 C 160.261719 124.910156 124.617188 160.558594 80.804688 160.558594 " fill-opacity="1" fill-rule="nonzero"/></g><g clip-path="url(#f781f9b654)"><path fill="#42bfd0" d="M 295.539062 160.558594 C 286.136719 160.558594 277.144531 158.832031 268.761719 155.816406 C 269.5 164.320312 271.046875 172.886719 273.460938 181.367188 C 278.359375 198.820312 287.246094 215.597656 299.195312 230.589844 C 311.171875 245.554688 326.464844 258.609375 344.265625 268.390625 C 324.472656 264 305.023438 255.507812 287.511719 243.25 C 270.046875 230.984375 254.285156 215.085938 242.296875 196.066406 C 230.253906 177.109375 221.617188 155.273438 217.515625 132.023438 C 214.296875 113.539062 213.8125 94.285156 216.390625 75.035156 C 216.773438 70.007812 217.636719 65.121094 218.914062 60.394531 C 218.933594 60.3125 218.945312 60.230469 218.960938 60.148438 L 218.980469 60.152344 C 228.203125 26.488281 258.988281 1.640625 295.539062 1.640625 C 339.355469 1.640625 375 37.289062 375 81.101562 C 375 124.910156 339.355469 160.558594 295.539062 160.558594 " fill-opacity="1" fill-rule="nonzero"/></g></svg>