<svg xmlns="http://www.w3.org/2000/svg" xmlns:xlink="http://www.w3.org/1999/xlink" width="500" zoomAndPan="magnify" viewBox="0 0 375 93.749996" height="125" preserveAspectRatio="xMidYMid meet" version="1.0"><defs><g/><clipPath id="0c31705368"><path d="M 0.5 1.496094 L 71.441406 1.496094 L 71.441406 92.707031 L 0.5 92.707031 Z M 0.5 1.496094 " clip-rule="nonzero"/></clipPath><clipPath id="25deb88653"><path d="M 11 4 L 71.441406 4 L 71.441406 90 L 11 90 Z M 11 4 " clip-rule="nonzero"/></clipPath><clipPath id="f5369c67e6"><path d="M 29 6 L 71.441406 6 L 71.441406 33 L 29 33 Z M 29 6 " clip-rule="nonzero"/></clipPath><clipPath id="d9b3608c94"><path d="M 53 27 L 71.441406 27 L 71.441406 46 L 53 46 Z M 53 27 " clip-rule="nonzero"/></clipPath><clipPath id="f563400b0e"><path d="M 55 26 L 71.441406 26 L 71.441406 32 L 55 32 Z M 55 26 " clip-rule="nonzero"/></clipPath><clipPath id="ba4c2286eb"><path d="M 36 86 L 60 86 L 60 92.707031 L 36 92.707031 Z M 36 86 " clip-rule="nonzero"/></clipPath><clipPath id="51c74d74cf"><path d="M 23 10.214844 L 23.628906 10.214844 L 23.628906 12.324219 L 23 12.324219 Z M 23 10.214844 " clip-rule="nonzero"/></clipPath><clipPath id="abe70088af"><path d="M 23.269531 10.261719 C 23.109375 10.503906 23.015625 10.789062 23.015625 11.101562 C 23.015625 11.589844 23.25 12.027344 23.613281 12.300781 L 23.269531 10.261719 " clip-rule="nonzero"/></clipPath></defs><g fill="#ffffff" fill-opacity="1"><g transform="translate(82.135724, 71.132837)"><g><path d="M 4.390625 -44.390625 L 14.453125 -46.015625 L 14.453125 -35.53125 L 26.546875 -35.53125 L 26.546875 -27.15625 L 14.453125 -27.15625 L 14.453125 -14.65625 C 14.453125 -12.539062 14.820312 -10.851562 15.5625 -9.59375 C 16.3125 -8.332031 17.8125 -7.703125 20.0625 -7.703125 C 21.144531 -7.703125 22.257812 -7.800781 23.40625 -8 C 24.5625 -8.207031 25.609375 -8.488281 26.546875 -8.84375 L 27.96875 -1.015625 C 26.75 -0.515625 25.394531 -0.0859375 23.90625 0.265625 C 22.425781 0.628906 20.601562 0.8125 18.4375 0.8125 C 15.695312 0.8125 13.425781 0.441406 11.625 -0.296875 C 9.820312 -1.046875 8.378906 -2.082031 7.296875 -3.40625 C 6.210938 -4.738281 5.457031 -6.347656 5.03125 -8.234375 C 4.601562 -10.128906 4.390625 -12.226562 4.390625 -14.53125 Z M 4.390625 -44.390625 "/></g></g></g><g fill="#ffffff" fill-opacity="1"><g transform="translate(113.143253, 71.132837)"><g><path d="M 3.046875 -17.5 C 3.046875 -20.65625 3.53125 -23.414062 4.5 -25.78125 C 5.46875 -28.144531 6.738281 -30.113281 8.3125 -31.6875 C 9.882812 -33.257812 11.695312 -34.453125 13.75 -35.265625 C 15.800781 -36.078125 17.90625 -36.484375 20.0625 -36.484375 C 25.113281 -36.484375 29.101562 -34.941406 32.03125 -31.859375 C 34.957031 -28.773438 36.421875 -24.234375 36.421875 -18.234375 C 36.421875 -17.648438 36.394531 -17.007812 36.34375 -16.3125 C 36.300781 -15.613281 36.257812 -14.992188 36.21875 -14.453125 L 13.375 -14.453125 C 13.601562 -12.378906 14.570312 -10.734375 16.28125 -9.515625 C 17.988281 -8.304688 20.285156 -7.703125 23.171875 -7.703125 C 25.015625 -7.703125 26.828125 -7.867188 28.609375 -8.203125 C 30.390625 -8.546875 31.84375 -8.960938 32.96875 -9.453125 L 34.328125 -1.28125 C 33.785156 -1.007812 33.0625 -0.738281 32.15625 -0.46875 C 31.257812 -0.195312 30.257812 0.0351562 29.15625 0.234375 C 28.050781 0.441406 26.867188 0.613281 25.609375 0.75 C 24.347656 0.882812 23.085938 0.953125 21.828125 0.953125 C 18.628906 0.953125 15.847656 0.476562 13.484375 -0.46875 C 11.117188 -1.414062 9.15625 -2.710938 7.59375 -4.359375 C 6.039062 -6.003906 4.894531 -7.953125 4.15625 -10.203125 C 3.414062 -12.453125 3.046875 -14.882812 3.046875 -17.5 Z M 26.6875 -21.34375 C 26.644531 -22.207031 26.5 -23.039062 26.25 -23.84375 C 26 -24.65625 25.613281 -25.375 25.09375 -26 C 24.582031 -26.632812 23.929688 -27.15625 23.140625 -27.5625 C 22.347656 -27.96875 21.367188 -28.171875 20.203125 -28.171875 C 19.078125 -28.171875 18.109375 -27.976562 17.296875 -27.59375 C 16.484375 -27.21875 15.804688 -26.710938 15.265625 -26.078125 C 14.722656 -25.453125 14.304688 -24.722656 14.015625 -23.890625 C 13.722656 -23.054688 13.507812 -22.207031 13.375 -21.34375 Z M 26.6875 -21.34375 "/></g></g></g><g fill="#ffffff" fill-opacity="1"><g transform="translate(153.608377, 71.132837)"><g><path d="M 3.046875 -17.765625 C 3.046875 -20.335938 3.460938 -22.757812 4.296875 -25.03125 C 5.128906 -27.300781 6.332031 -29.28125 7.90625 -30.96875 C 9.476562 -32.664062 11.390625 -34.007812 13.640625 -35 C 15.898438 -35.988281 18.46875 -36.484375 21.34375 -36.484375 C 23.238281 -36.484375 24.972656 -36.3125 26.546875 -35.96875 C 28.128906 -35.632812 29.660156 -35.15625 31.140625 -34.53125 L 29.046875 -26.484375 C 28.109375 -26.847656 27.070312 -27.160156 25.9375 -27.421875 C 24.8125 -27.691406 23.550781 -27.828125 22.15625 -27.828125 C 19.1875 -27.828125 16.96875 -26.90625 15.5 -25.0625 C 14.039062 -23.21875 13.3125 -20.785156 13.3125 -17.765625 C 13.3125 -14.566406 14 -12.085938 15.375 -10.328125 C 16.75 -8.578125 19.144531 -7.703125 22.5625 -7.703125 C 23.78125 -7.703125 25.085938 -7.8125 26.484375 -8.03125 C 27.878906 -8.257812 29.160156 -8.625 30.328125 -9.125 L 31.75 -0.875 C 30.582031 -0.382812 29.117188 0.0390625 27.359375 0.40625 C 25.609375 0.769531 23.671875 0.953125 21.546875 0.953125 C 18.304688 0.953125 15.515625 0.46875 13.171875 -0.5 C 10.828125 -1.46875 8.898438 -2.785156 7.390625 -4.453125 C 5.890625 -6.117188 4.789062 -8.085938 4.09375 -10.359375 C 3.394531 -12.640625 3.046875 -15.109375 3.046875 -17.765625 Z M 3.046875 -17.765625 "/></g></g></g><g fill="#ffffff" fill-opacity="1"><g transform="translate(188.398936, 71.132837)"><g><path d="M 4.734375 0 L 4.734375 -50.8125 L 14.796875 -52.421875 L 14.796875 -35.40625 C 15.472656 -35.625 16.335938 -35.832031 17.390625 -36.03125 C 18.453125 -36.238281 19.476562 -36.34375 20.46875 -36.34375 C 23.351562 -36.34375 25.75 -35.945312 27.65625 -35.15625 C 29.570312 -34.375 31.101562 -33.257812 32.25 -31.8125 C 33.40625 -30.375 34.21875 -28.664062 34.6875 -26.6875 C 35.164062 -24.707031 35.40625 -22.5 35.40625 -20.0625 L 35.40625 0 L 25.34375 0 L 25.34375 -18.84375 C 25.34375 -22.09375 24.925781 -24.390625 24.09375 -25.734375 C 23.257812 -27.085938 21.710938 -27.765625 19.453125 -27.765625 C 18.554688 -27.765625 17.710938 -27.6875 16.921875 -27.53125 C 16.128906 -27.375 15.421875 -27.207031 14.796875 -27.03125 L 14.796875 0 Z M 4.734375 0 "/></g></g></g><g fill="#42bfd0" fill-opacity="1"><g transform="translate(229.212258, 71.132837)"><g><path d="M 14.796875 0 L 4.734375 0 L 4.734375 -35.53125 L 14.796875 -35.53125 Z M 15.734375 -45.8125 C 15.734375 -43.957031 15.132812 -42.5 13.9375 -41.4375 C 12.75 -40.382812 11.347656 -39.859375 9.734375 -39.859375 C 8.109375 -39.859375 6.695312 -40.382812 5.5 -41.4375 C 4.3125 -42.5 3.71875 -43.957031 3.71875 -45.8125 C 3.71875 -47.65625 4.3125 -49.101562 5.5 -50.15625 C 6.695312 -51.21875 8.109375 -51.75 9.734375 -51.75 C 11.347656 -51.75 12.75 -51.21875 13.9375 -50.15625 C 15.132812 -49.101562 15.734375 -47.65625 15.734375 -45.8125 Z M 15.734375 -45.8125 "/></g></g></g><g fill="#42bfd0" fill-opacity="1"><g transform="translate(249.748888, 71.132837)"><g><path d="M 13.3125 -18.046875 C 13.3125 -14.929688 14.007812 -12.425781 15.40625 -10.53125 C 16.800781 -8.644531 18.875 -7.703125 21.625 -7.703125 C 22.519531 -7.703125 23.347656 -7.734375 24.109375 -7.796875 C 24.878906 -7.867188 25.515625 -7.953125 26.015625 -8.046875 L 26.015625 -26.34375 C 25.378906 -26.75 24.554688 -27.085938 23.546875 -27.359375 C 22.535156 -27.628906 21.507812 -27.765625 20.46875 -27.765625 C 15.695312 -27.765625 13.3125 -24.523438 13.3125 -18.046875 Z M 36.078125 -1.15625 C 35.179688 -0.882812 34.144531 -0.625 32.96875 -0.375 C 31.800781 -0.125 30.570312 0.0859375 29.28125 0.265625 C 28 0.453125 26.691406 0.597656 25.359375 0.703125 C 24.035156 0.816406 22.765625 0.875 21.546875 0.875 C 18.617188 0.875 16.003906 0.445312 13.703125 -0.40625 C 11.410156 -1.257812 9.476562 -2.484375 7.90625 -4.078125 C 6.332031 -5.679688 5.128906 -7.617188 4.296875 -9.890625 C 3.460938 -12.171875 3.046875 -14.726562 3.046875 -17.5625 C 3.046875 -20.445312 3.40625 -23.046875 4.125 -25.359375 C 4.84375 -27.679688 5.875 -29.65625 7.21875 -31.28125 C 8.570312 -32.90625 10.226562 -34.144531 12.1875 -35 C 14.15625 -35.851562 16.398438 -36.28125 18.921875 -36.28125 C 20.316406 -36.28125 21.566406 -36.144531 22.671875 -35.875 C 23.773438 -35.601562 24.890625 -35.222656 26.015625 -34.734375 L 26.015625 -50.8125 L 36.078125 -52.421875 Z M 36.078125 -1.15625 "/></g></g></g><g fill="#42bfd0" fill-opacity="1"><g transform="translate(291.565092, 71.132837)"><g><path d="M 3.046875 -17.5 C 3.046875 -20.65625 3.53125 -23.414062 4.5 -25.78125 C 5.46875 -28.144531 6.738281 -30.113281 8.3125 -31.6875 C 9.882812 -33.257812 11.695312 -34.453125 13.75 -35.265625 C 15.800781 -36.078125 17.90625 -36.484375 20.0625 -36.484375 C 25.113281 -36.484375 29.101562 -34.941406 32.03125 -31.859375 C 34.957031 -28.773438 36.421875 -24.234375 36.421875 -18.234375 C 36.421875 -17.648438 36.394531 -17.007812 36.34375 -16.3125 C 36.300781 -15.613281 36.257812 -14.992188 36.21875 -14.453125 L 13.375 -14.453125 C 13.601562 -12.378906 14.570312 -10.734375 16.28125 -9.515625 C 17.988281 -8.304688 20.285156 -7.703125 23.171875 -7.703125 C 25.015625 -7.703125 26.828125 -7.867188 28.609375 -8.203125 C 30.390625 -8.546875 31.84375 -8.960938 32.96875 -9.453125 L 34.328125 -1.28125 C 33.785156 -1.007812 33.0625 -0.738281 32.15625 -0.46875 C 31.257812 -0.195312 30.257812 0.0351562 29.15625 0.234375 C 28.050781 0.441406 26.867188 0.613281 25.609375 0.75 C 24.347656 0.882812 23.085938 0.953125 21.828125 0.953125 C 18.628906 0.953125 15.847656 0.476562 13.484375 -0.46875 C 11.117188 -1.414062 9.15625 -2.710938 7.59375 -4.359375 C 6.039062 -6.003906 4.894531 -7.953125 4.15625 -10.203125 C 3.414062 -12.453125 3.046875 -14.882812 3.046875 -17.5 Z M 26.6875 -21.34375 C 26.644531 -22.207031 26.5 -23.039062 26.25 -23.84375 C 26 -24.65625 25.613281 -25.375 25.09375 -26 C 24.582031 -26.632812 23.929688 -27.15625 23.140625 -27.5625 C 22.347656 -27.96875 21.367188 -28.171875 20.203125 -28.171875 C 19.078125 -28.171875 18.109375 -27.976562 17.296875 -27.59375 C 16.484375 -27.21875 15.804688 -26.710938 15.265625 -26.078125 C 14.722656 -25.453125 14.304688 -24.722656 14.015625 -23.890625 C 13.722656 -23.054688 13.507812 -22.207031 13.375 -21.34375 Z M 26.6875 -21.34375 "/></g></g></g><g fill="#42bfd0" fill-opacity="1"><g transform="translate(332.030212, 71.132837)"><g><path d="M 4.734375 -34.328125 C 6.441406 -34.816406 8.644531 -35.273438 11.34375 -35.703125 C 14.050781 -36.128906 16.890625 -36.34375 19.859375 -36.34375 C 22.878906 -36.34375 25.390625 -35.945312 27.390625 -35.15625 C 29.398438 -34.375 30.988281 -33.257812 32.15625 -31.8125 C 33.332031 -30.375 34.164062 -28.664062 34.65625 -26.6875 C 35.15625 -24.707031 35.40625 -22.5 35.40625 -20.0625 L 35.40625 0 L 25.34375 0 L 25.34375 -18.84375 C 25.34375 -22.09375 24.910156 -24.390625 24.046875 -25.734375 C 23.191406 -27.085938 21.59375 -27.765625 19.25 -27.765625 C 18.53125 -27.765625 17.765625 -27.726562 16.953125 -27.65625 C 16.140625 -27.59375 15.421875 -27.519531 14.796875 -27.4375 L 14.796875 0 L 4.734375 0 Z M 4.734375 -34.328125 "/></g></g></g><g clip-path="url(#0c31705368)"><path fill="#4a9bdb" d="M 0.503906 32.359375 L 5.355469 62.402344 L 11.363281 75.296875 L 36.082031 92.703125 L 56.1875 92.703125 L 58.261719 89.625 L 60.578125 86.203125 L 65.429688 71.117188 L 69.585938 49.300781 L 68.429688 38.160156 L 71.4375 28.417969 L 65.429688 6.832031 L 54.339844 8.6875 L 31.230469 7.761719 L 22.285156 4.34375 L 14.824219 1.496094 L 9.507812 8.6875 L 0.503906 32.359375 " fill-opacity="1" fill-rule="nonzero"/></g><g clip-path="url(#25deb88653)"><path fill="#62cce5" d="M 11.132812 56.5 L 29.84375 70.714844 L 40.011719 71.003906 L 54.078125 79.101562 L 50.640625 86.554688 L 58.261719 89.625 L 60.578125 86.203125 L 65.429688 71.117188 L 69.585938 49.300781 L 68.429688 38.160156 L 71.4375 28.417969 L 65.429688 6.832031 L 54.339844 8.6875 L 31.230469 7.761719 L 22.285156 4.34375 L 25.914062 26.09375 L 21.066406 40.601562 L 11.132812 56.5 " fill-opacity="1" fill-rule="nonzero"/></g><path fill="#4a9bdb" d="M 52.664062 62.648438 L 40.011719 71.003906 L 59.898438 67.898438 L 52.664062 62.648438 " fill-opacity="1" fill-rule="nonzero"/><path fill="#4a9bdb" d="M 56.992188 41.578125 L 66.238281 59.050781 L 53.933594 63.925781 L 56.992188 41.578125 " fill-opacity="1" fill-rule="nonzero"/><path fill="#4a9bdb" d="M 59.507812 57.019531 L 53.933594 63.925781 L 44.980469 56.496094 L 50.238281 54.46875 L 59.507812 57.019531 " fill-opacity="1" fill-rule="nonzero"/><path fill="#8edaf1" d="M 49.3125 68.394531 L 54.972656 64.5625 L 59.898438 67.898438 L 56.675781 70.308594 L 49.3125 68.394531 " fill-opacity="1" fill-rule="nonzero"/><g clip-path="url(#f5369c67e6)"><path fill="#8edaf1" d="M 29.84375 26.558594 L 31.230469 7.761719 L 54.339844 8.6875 L 65.429688 6.832031 L 71.4375 28.414062 L 49.398438 32.882812 L 29.84375 26.558594 " fill-opacity="1" fill-rule="nonzero"/></g><g clip-path="url(#d9b3608c94)"><path fill="#2c66a6" d="M 67.625 27.488281 L 71.1875 29.226562 L 68.433594 38.164062 L 69.105469 44.664062 L 64.621094 45.589844 L 57.1875 42.078125 L 53.933594 33.8125 L 55.8125 28.792969 L 67.625 27.488281 " fill-opacity="1" fill-rule="nonzero"/></g><path fill="#4a9bdb" d="M 57.425781 31.222656 L 54.835938 36.105469 L 53.933594 33.8125 L 55.8125 28.792969 L 57.425781 31.222656 " fill-opacity="1" fill-rule="nonzero"/><path fill="#4a9bdb" d="M 44.632812 29.226562 L 45.558594 28.414062 L 48.851562 35.550781 L 55.679688 50.875 L 48.828125 55.570312 L 43.246094 38.394531 L 41.976562 32.824219 L 44.632812 29.226562 " fill-opacity="1" fill-rule="nonzero"/><path fill="#2c66a6" d="M 43.246094 29.226562 L 45.558594 28.414062 L 43.246094 35.03125 L 43.246094 38.394531 L 31.695312 45.589844 L 21.066406 40.601562 L 17.832031 32.359375 L 26.148438 27.488281 L 43.246094 29.226562 " fill-opacity="1" fill-rule="nonzero"/><path fill="#16344f" d="M 45.558594 28.414062 L 43.941406 31.027344 L 26.609375 28.414062 L 17.832031 32.359375 L 25.917969 26.09375 L 45.558594 28.414062 " fill-opacity="1" fill-rule="nonzero"/><g clip-path="url(#f563400b0e)"><path fill="#16344f" d="M 55.8125 28.792969 L 67.679688 26.53125 L 71.4375 28.414062 L 71.183594 29.226562 L 67.769531 28.269531 L 57.421875 31.222656 L 55.8125 28.792969 " fill-opacity="1" fill-rule="nonzero"/></g><path fill="#8edaf1" d="M 55.269531 30.242188 L 53.933594 33.8125 L 61.5 53.015625 L 51.796875 51.972656 L 54.28125 47.738281 L 46.65625 30.792969 L 51.101562 29.75 L 55.269531 30.242188 " fill-opacity="1" fill-rule="nonzero"/><path fill="#8edaf1" d="M 62.25 72.105469 C 62.078125 72.164062 57.628906 75.53125 57.628906 75.53125 L 49.082031 75.53125 L 39.710938 71.058594 L 49.714844 69.871094 L 60.230469 70.714844 L 63.804688 71.242188 L 62.25 72.105469 " fill-opacity="1" fill-rule="nonzero"/><path fill="#16344f" d="M 59.898438 67.898438 C 59.667969 67.898438 55.148438 68.914062 55.148438 68.914062 L 50.640625 67.464844 L 40.011719 71.003906 L 49.140625 71.699219 L 55.667969 71.699219 L 63.925781 71.234375 L 59.898438 67.898438 " fill-opacity="1" fill-rule="nonzero"/><path fill="#4a9bdb" d="M 57.398438 77.039062 L 49.714844 77.039062 L 54.078125 79.101562 Z M 57.398438 77.039062 " fill-opacity="1" fill-rule="nonzero"/><g clip-path="url(#ba4c2286eb)"><path fill="#2c66a6" d="M 36.082031 92.703125 L 45.847656 86.554688 L 57.976562 86.902344 L 59.902344 87.203125 L 56.1875 92.703125 L 36.082031 92.703125 " fill-opacity="1" fill-rule="nonzero"/></g><path fill="#16344f" d="M 29.84375 70.714844 L 23.605469 59.398438 L 11.128906 56.496094 Z M 29.84375 70.714844 " fill-opacity="1" fill-rule="nonzero"/><path fill="#16344f" d="M 52.875 52.089844 L 47.523438 53.015625 L 44.980469 56.496094 L 52.351562 56.496094 L 56.535156 57.558594 L 59.507812 57.019531 L 61.5 53.015625 L 52.875 52.089844 " fill-opacity="1" fill-rule="nonzero"/><path fill="#4a9bdb" d="M 39.5625 38.253906 L 30.117188 40.023438 L 26.800781 37.527344 C 26.800781 37.527344 31.449219 34.402344 31.652344 34.390625 C 31.851562 34.378906 40.0625 35.089844 40.0625 35.089844 L 39.5625 38.253906 " fill-opacity="1" fill-rule="nonzero"/><path fill="#4a9bdb" d="M 66.140625 37.902344 L 58.625 38.386719 C 58.625 38.386719 60.035156 34.390625 60.207031 34.390625 C 60.378906 34.390625 66.9375 35.101562 66.9375 35.101562 L 67.484375 36.921875 L 66.140625 37.902344 " fill-opacity="1" fill-rule="nonzero"/><path fill="#8edaf1" d="M 57.191406 42.078125 L 69.105469 44.664062 L 69.5 49.738281 L 57.191406 42.078125 " fill-opacity="1" fill-rule="nonzero"/><g clip-path="url(#51c74d74cf)"><g clip-path="url(#abe70088af)"><path fill="#5bb4e0" d="M 23.019531 12.300781 L 23.613281 12.300781 L 23.613281 10.261719 L 23.019531 10.261719 L 23.019531 12.300781 " fill-opacity="1" fill-rule="nonzero"/></g></g><path fill="#73d1de" d="M 24.515625 9.59375 C 23.996094 9.59375 23.539062 9.859375 23.273438 10.261719 L 23.613281 12.300781 C 23.863281 12.492188 24.175781 12.605469 24.515625 12.605469 C 25.34375 12.605469 26.015625 11.933594 26.015625 11.101562 C 26.015625 10.269531 25.34375 9.59375 24.515625 9.59375 M 24.515625 12.148438 C 23.941406 12.148438 23.472656 11.679688 23.472656 11.101562 C 23.472656 10.523438 23.941406 10.054688 24.515625 10.054688 C 25.09375 10.054688 25.558594 10.523438 25.558594 11.101562 C 25.558594 11.679688 25.09375 12.148438 24.515625 12.148438 " fill-opacity="1" fill-rule="nonzero"/><path fill="#83d5d4" d="M 24.515625 10.054688 C 23.941406 10.054688 23.472656 10.523438 23.472656 11.101562 C 23.472656 11.679688 23.941406 12.148438 24.515625 12.148438 C 25.09375 12.148438 25.558594 11.679688 25.558594 11.101562 C 25.558594 10.523438 25.09375 10.054688 24.515625 10.054688 M 24.515625 11.722656 C 24.175781 11.722656 23.898438 11.445312 23.898438 11.101562 C 23.898438 10.757812 24.175781 10.476562 24.515625 10.476562 C 24.859375 10.476562 25.136719 10.757812 25.136719 11.101562 C 25.136719 11.445312 24.859375 11.722656 24.515625 11.722656 " fill-opacity="1" fill-rule="nonzero"/><path fill="#e7f7fa" d="M 24.515625 10.480469 C 24.175781 10.480469 23.894531 10.757812 23.894531 11.101562 C 23.894531 11.445312 24.175781 11.722656 24.515625 11.722656 C 24.859375 11.722656 25.136719 11.445312 25.136719 11.101562 C 25.136719 10.757812 24.859375 10.480469 24.515625 10.480469 " fill-opacity="1" fill-rule="nonzero"/><path fill="#9adee8" d="M 59.820312 10.054688 C 58.992188 10.054688 58.320312 10.726562 58.320312 11.558594 C 58.320312 12.390625 58.992188 13.066406 59.820312 13.066406 C 60.648438 13.066406 61.320312 12.390625 61.320312 11.558594 C 61.320312 10.726562 60.648438 10.054688 59.820312 10.054688 M 59.820312 12.605469 C 59.242188 12.605469 58.777344 12.136719 58.777344 11.558594 C 58.777344 10.980469 59.242188 10.511719 59.820312 10.511719 C 60.394531 10.511719 60.863281 10.980469 60.863281 11.558594 C 60.863281 12.136719 60.394531 12.605469 59.820312 12.605469 " fill-opacity="1" fill-rule="nonzero"/><path fill="#a6e1de" d="M 59.820312 10.511719 C 59.242188 10.511719 58.777344 10.980469 58.777344 11.558594 C 58.777344 12.136719 59.242188 12.605469 59.820312 12.605469 C 60.394531 12.605469 60.863281 12.136719 60.863281 11.558594 C 60.863281 10.980469 60.394531 10.511719 59.820312 10.511719 M 59.820312 12.183594 C 59.476562 12.183594 59.199219 11.902344 59.199219 11.558594 C 59.199219 11.214844 59.476562 10.9375 59.820312 10.9375 C 60.160156 10.9375 60.441406 11.214844 60.441406 11.558594 C 60.441406 11.902344 60.160156 12.183594 59.820312 12.183594 " fill-opacity="1" fill-rule="nonzero"/><path fill="#eef9fd" d="M 59.820312 10.9375 C 59.476562 10.9375 59.199219 11.214844 59.199219 11.558594 C 59.199219 11.902344 59.476562 12.183594 59.820312 12.183594 C 60.160156 12.183594 60.441406 11.902344 60.441406 11.558594 C 60.441406 11.214844 60.160156 10.9375 59.820312 10.9375 " fill-opacity="1" fill-rule="nonzero"/><path fill="#3891ba" d="M 28.421875 38.746094 C 28.414062 38.804688 28.410156 38.863281 28.410156 38.925781 C 28.410156 39.753906 29.082031 40.429688 29.910156 40.429688 C 30.394531 40.429688 30.824219 40.199219 31.101562 39.839844 L 30.117188 40.023438 L 30.039062 39.964844 C 29.996094 39.96875 29.953125 39.972656 29.910156 39.972656 C 29.390625 39.972656 28.960938 39.589844 28.878906 39.089844 L 28.421875 38.746094 " fill-opacity="1" fill-rule="nonzero"/><path fill="#5bb4e0" d="M 29.910156 37.417969 C 29.140625 37.417969 28.507812 38 28.421875 38.746094 L 28.878906 39.089844 C 28.871094 39.035156 28.867188 38.980469 28.867188 38.925781 C 28.867188 38.347656 29.332031 37.878906 29.910156 37.878906 C 30.484375 37.878906 30.949219 38.347656 30.949219 38.925781 C 30.949219 39.457031 30.550781 39.898438 30.039062 39.964844 L 30.117188 40.023438 L 31.101562 39.839844 C 31.292969 39.585938 31.40625 39.269531 31.40625 38.925781 C 31.40625 38.09375 30.738281 37.417969 29.910156 37.417969 " fill-opacity="1" fill-rule="nonzero"/><path fill="#46c2ca" d="M 28.878906 39.089844 C 28.960938 39.589844 29.390625 39.972656 29.910156 39.972656 C 29.953125 39.972656 29.996094 39.96875 30.039062 39.964844 L 28.878906 39.089844 " fill-opacity="1" fill-rule="nonzero"/><path fill="#6bcfe4" d="M 29.910156 37.878906 C 29.332031 37.878906 28.867188 38.347656 28.867188 38.925781 C 28.867188 38.980469 28.871094 39.035156 28.878906 39.089844 L 30.039062 39.964844 C 30.550781 39.898438 30.949219 39.457031 30.949219 38.925781 C 30.949219 38.347656 30.484375 37.878906 29.910156 37.878906 M 29.910156 39.546875 C 29.566406 39.546875 29.289062 39.269531 29.289062 38.925781 C 29.289062 38.582031 29.566406 38.300781 29.910156 38.300781 C 30.25 38.300781 30.527344 38.582031 30.527344 38.925781 C 30.527344 39.269531 30.25 39.546875 29.910156 39.546875 " fill-opacity="1" fill-rule="nonzero"/><path fill="#e2f6fd" d="M 29.910156 38.300781 C 29.566406 38.300781 29.289062 38.582031 29.289062 38.925781 C 29.289062 39.269531 29.566406 39.546875 29.910156 39.546875 C 30.25 39.546875 30.527344 39.269531 30.527344 38.925781 C 30.527344 38.582031 30.25 38.300781 29.910156 38.300781 " fill-opacity="1" fill-rule="nonzero"/><path fill="#73d1de" d="M 26.527344 52.511719 C 25.699219 52.511719 25.027344 53.183594 25.027344 54.015625 C 25.027344 54.847656 25.699219 55.523438 26.527344 55.523438 C 27.355469 55.523438 28.023438 54.847656 28.023438 54.015625 C 28.023438 53.183594 27.355469 52.511719 26.527344 52.511719 M 26.527344 55.066406 C 25.949219 55.066406 25.484375 54.59375 25.484375 54.015625 C 25.484375 53.4375 25.949219 52.96875 26.527344 52.96875 C 27.101562 52.96875 27.566406 53.4375 27.566406 54.015625 C 27.566406 54.59375 27.101562 55.066406 26.527344 55.066406 " fill-opacity="1" fill-rule="nonzero"/><path fill="#83d5d4" d="M 26.527344 52.96875 C 25.949219 52.96875 25.484375 53.4375 25.484375 54.015625 C 25.484375 54.59375 25.949219 55.066406 26.527344 55.066406 C 27.101562 55.066406 27.566406 54.59375 27.566406 54.015625 C 27.566406 53.4375 27.101562 52.96875 26.527344 52.96875 M 26.527344 54.640625 C 26.183594 54.640625 25.90625 54.363281 25.90625 54.015625 C 25.90625 53.671875 26.183594 53.394531 26.527344 53.394531 C 26.867188 53.394531 27.144531 53.671875 27.144531 54.015625 C 27.144531 54.363281 26.867188 54.640625 26.527344 54.640625 " fill-opacity="1" fill-rule="nonzero"/><path fill="#e7f7fa" d="M 26.527344 53.394531 C 26.183594 53.394531 25.90625 53.671875 25.90625 54.015625 C 25.90625 54.363281 26.183594 54.640625 26.527344 54.640625 C 26.867188 54.640625 27.144531 54.363281 27.144531 54.015625 C 27.144531 53.671875 26.867188 53.394531 26.527344 53.394531 " fill-opacity="1" fill-rule="nonzero"/><path fill="#73d1de" d="M 63.917969 59.96875 L 62.703125 60.449219 C 62.742188 60.453125 62.777344 60.453125 62.816406 60.453125 C 63.253906 60.453125 63.644531 60.269531 63.917969 59.96875 " fill-opacity="1" fill-rule="nonzero"/><path fill="#5bb4e0" d="M 62.816406 57.445312 C 61.988281 57.445312 61.316406 58.117188 61.316406 58.949219 C 61.316406 59.742188 61.929688 60.394531 62.703125 60.449219 L 63.917969 59.96875 C 64.164062 59.699219 64.316406 59.34375 64.316406 58.949219 C 64.316406 58.117188 63.644531 57.445312 62.816406 57.445312 M 62.816406 59.996094 C 62.242188 59.996094 61.773438 59.527344 61.773438 58.949219 C 61.773438 58.371094 62.242188 57.902344 62.816406 57.902344 C 63.394531 57.902344 63.859375 58.371094 63.859375 58.949219 C 63.859375 59.527344 63.394531 59.996094 62.816406 59.996094 " fill-opacity="1" fill-rule="nonzero"/><path fill="#6bcfe4" d="M 62.816406 57.902344 C 62.242188 57.902344 61.773438 58.371094 61.773438 58.949219 C 61.773438 59.527344 62.242188 59.996094 62.816406 59.996094 C 63.394531 59.996094 63.859375 59.527344 63.859375 58.949219 C 63.859375 58.371094 63.394531 57.902344 62.816406 57.902344 M 62.816406 59.570312 C 62.476562 59.570312 62.195312 59.292969 62.195312 58.949219 C 62.195312 58.605469 62.476562 58.324219 62.816406 58.324219 C 63.160156 58.324219 63.4375 58.605469 63.4375 58.949219 C 63.4375 59.292969 63.160156 59.570312 62.816406 59.570312 " fill-opacity="1" fill-rule="nonzero"/><path fill="#e2f6fd" d="M 62.816406 58.324219 C 62.476562 58.324219 62.195312 58.605469 62.195312 58.949219 C 62.195312 59.292969 62.476562 59.570312 62.816406 59.570312 C 63.160156 59.570312 63.4375 59.292969 63.4375 58.949219 C 63.4375 58.605469 63.160156 58.324219 62.816406 58.324219 " fill-opacity="1" fill-rule="nonzero"/><path fill="#5bb4e0" d="M 41.636719 71.976562 C 41.804688 72.621094 42.390625 73.097656 43.085938 73.097656 C 43.242188 73.097656 43.390625 73.074219 43.53125 73.03125 L 42.765625 72.589844 C 42.625 72.542969 42.5 72.46875 42.390625 72.375 L 42.03125 72.167969 L 41.636719 71.976562 " fill-opacity="1" fill-rule="nonzero"/><path fill="#73d1de" d="M 42.03125 72.167969 L 42.390625 72.375 C 42.367188 72.351562 42.34375 72.328125 42.324219 72.304688 L 42.03125 72.167969 M 42.765625 72.589844 L 43.53125 73.03125 C 43.589844 73.011719 43.648438 72.988281 43.703125 72.964844 L 43.019531 72.636719 C 42.929688 72.632812 42.847656 72.613281 42.765625 72.589844 " fill-opacity="1" fill-rule="nonzero"/><path fill="#9adee8" d="M 41.660156 71.128906 C 41.613281 71.277344 41.585938 71.429688 41.585938 71.59375 C 41.585938 71.726562 41.605469 71.855469 41.636719 71.976562 L 42.03125 72.167969 L 42.324219 72.304688 C 42.148438 72.117188 42.042969 71.867188 42.042969 71.59375 C 42.042969 71.441406 42.074219 71.296875 42.132812 71.164062 L 41.660156 71.128906 M 44.089844 71.316406 C 44.117188 71.402344 44.128906 71.496094 44.128906 71.59375 C 44.128906 72.171875 43.660156 72.640625 43.085938 72.640625 C 43.0625 72.640625 43.039062 72.640625 43.019531 72.636719 L 43.703125 72.964844 C 44.222656 72.726562 44.585938 72.203125 44.585938 71.59375 C 44.585938 71.511719 44.578125 71.429688 44.566406 71.351562 L 44.089844 71.316406 " fill-opacity="1" fill-rule="nonzero"/><path fill="#236c75" d="M 43.085938 70.085938 C 42.417969 70.085938 41.855469 70.523438 41.660156 71.128906 L 42.132812 71.164062 C 42.296875 70.800781 42.660156 70.542969 43.085938 70.542969 C 43.566406 70.542969 43.96875 70.871094 44.089844 71.316406 L 44.566406 71.351562 C 44.449219 70.632812 43.832031 70.085938 43.085938 70.085938 " fill-opacity="1" fill-rule="nonzero"/><path fill="#6bcfe4" d="M 42.390625 72.375 C 42.5 72.46875 42.625 72.542969 42.765625 72.589844 L 42.390625 72.375 " fill-opacity="1" fill-rule="nonzero"/><path fill="#83d5d4" d="M 42.324219 72.304688 C 42.34375 72.328125 42.367188 72.351562 42.390625 72.375 L 42.765625 72.589844 C 42.847656 72.613281 42.929688 72.632812 43.019531 72.636719 L 42.324219 72.304688 " fill-opacity="1" fill-rule="nonzero"/><path fill="#a6e1de" d="M 42.132812 71.164062 C 42.074219 71.296875 42.042969 71.441406 42.042969 71.59375 C 42.042969 71.867188 42.148438 72.117188 42.324219 72.304688 L 43.019531 72.636719 C 43.039062 72.640625 43.0625 72.640625 43.085938 72.640625 C 43.660156 72.640625 44.128906 72.171875 44.128906 71.59375 C 44.128906 71.496094 44.117188 71.402344 44.089844 71.316406 L 43.621094 71.28125 C 43.675781 71.371094 43.707031 71.480469 43.707031 71.59375 C 43.707031 71.9375 43.429688 72.214844 43.085938 72.214844 C 42.742188 72.214844 42.464844 71.9375 42.464844 71.59375 C 42.464844 71.445312 42.515625 71.308594 42.601562 71.203125 L 42.132812 71.164062 " fill-opacity="1" fill-rule="nonzero"/><path fill="#35ba9d" d="M 43.085938 70.542969 C 42.660156 70.542969 42.296875 70.800781 42.132812 71.164062 L 42.601562 71.203125 C 42.714844 71.058594 42.890625 70.96875 43.085938 70.96875 C 43.316406 70.96875 43.515625 71.09375 43.621094 71.28125 L 44.089844 71.316406 C 43.96875 70.871094 43.566406 70.542969 43.085938 70.542969 " fill-opacity="1" fill-rule="nonzero"/><path fill="#eef9fd" d="M 42.601562 71.203125 C 42.515625 71.308594 42.464844 71.445312 42.464844 71.59375 C 42.464844 71.9375 42.742188 72.214844 43.085938 72.214844 C 43.429688 72.214844 43.707031 71.9375 43.707031 71.59375 C 43.707031 71.480469 43.675781 71.371094 43.621094 71.28125 L 42.601562 71.203125 " fill-opacity="1" fill-rule="nonzero"/><path fill="#d7f1e7" d="M 43.085938 70.96875 C 42.890625 70.96875 42.714844 71.058594 42.601562 71.203125 L 43.621094 71.28125 C 43.515625 71.09375 43.316406 70.96875 43.085938 70.96875 " fill-opacity="1" fill-rule="nonzero"/><path fill="#73d1de" d="M 61.316406 75.546875 C 60.488281 75.546875 59.820312 76.222656 59.820312 77.054688 C 59.820312 77.882812 60.488281 78.558594 61.316406 78.558594 C 62.144531 78.558594 62.816406 77.882812 62.816406 77.054688 C 62.816406 76.222656 62.144531 75.546875 61.316406 75.546875 M 61.316406 78.101562 C 60.742188 78.101562 60.277344 77.632812 60.277344 77.054688 C 60.277344 76.476562 60.742188 76.007812 61.316406 76.007812 C 61.894531 76.007812 62.359375 76.476562 62.359375 77.054688 C 62.359375 77.632812 61.894531 78.101562 61.316406 78.101562 " fill-opacity="1" fill-rule="nonzero"/><path fill="#83d5d4" d="M 61.316406 76.007812 C 60.742188 76.007812 60.277344 76.476562 60.277344 77.054688 C 60.277344 77.632812 60.742188 78.101562 61.316406 78.101562 C 61.894531 78.101562 62.359375 77.632812 62.359375 77.054688 C 62.359375 76.476562 61.894531 76.007812 61.316406 76.007812 M 61.316406 77.675781 C 60.976562 77.675781 60.699219 77.398438 60.699219 77.054688 C 60.699219 76.707031 60.976562 76.429688 61.316406 76.429688 C 61.660156 76.429688 61.9375 76.707031 61.9375 77.054688 C 61.9375 77.398438 61.660156 77.675781 61.316406 77.675781 " fill-opacity="1" fill-rule="nonzero"/><path fill="#e7f7fa" d="M 61.316406 76.429688 C 60.976562 76.429688 60.699219 76.707031 60.699219 77.054688 C 60.699219 77.398438 60.976562 77.675781 61.316406 77.675781 C 61.660156 77.675781 61.9375 77.398438 61.9375 77.054688 C 61.9375 76.707031 61.660156 76.429688 61.316406 76.429688 " fill-opacity="1" fill-rule="nonzero"/><path fill="#3891ba" d="M 46.085938 86.871094 C 45.257812 86.871094 44.585938 87.546875 44.585938 88.378906 C 44.585938 89.210938 45.257812 89.882812 46.085938 89.882812 C 46.910156 89.882812 47.582031 89.210938 47.582031 88.378906 C 47.582031 87.546875 46.910156 86.871094 46.085938 86.871094 M 46.085938 89.425781 C 45.507812 89.425781 45.042969 88.957031 45.042969 88.378906 C 45.042969 87.800781 45.507812 87.332031 46.085938 87.332031 C 46.660156 87.332031 47.125 87.800781 47.125 88.378906 C 47.125 88.957031 46.660156 89.425781 46.085938 89.425781 " fill-opacity="1" fill-rule="nonzero"/><path fill="#46c2ca" d="M 46.085938 87.332031 C 45.507812 87.332031 45.042969 87.800781 45.042969 88.378906 C 45.042969 88.957031 45.507812 89.425781 46.085938 89.425781 C 46.660156 89.425781 47.125 88.957031 47.125 88.378906 C 47.125 87.800781 46.660156 87.332031 46.085938 87.332031 M 46.085938 89 C 45.742188 89 45.464844 88.722656 45.464844 88.378906 C 45.464844 88.035156 45.742188 87.753906 46.085938 87.753906 C 46.425781 87.753906 46.703125 88.035156 46.703125 88.378906 C 46.703125 88.722656 46.425781 89 46.085938 89 " fill-opacity="1" fill-rule="nonzero"/><path fill="#dbf3f5" d="M 46.085938 87.753906 C 45.742188 87.753906 45.464844 88.035156 45.464844 88.378906 C 45.464844 88.722656 45.742188 89 46.085938 89 C 46.425781 89 46.703125 88.722656 46.703125 88.378906 C 46.703125 88.035156 46.425781 87.753906 46.085938 87.753906 " fill-opacity="1" fill-rule="nonzero"/><path fill="#5bb4e0" d="M 28.644531 72.214844 C 27.816406 72.214844 27.148438 72.890625 27.148438 73.722656 C 27.148438 74.550781 27.816406 75.226562 28.644531 75.226562 C 29.472656 75.226562 30.144531 74.550781 30.144531 73.722656 C 30.144531 72.890625 29.472656 72.214844 28.644531 72.214844 M 28.644531 74.769531 C 28.070312 74.769531 27.601562 74.300781 27.601562 73.722656 C 27.601562 73.144531 28.070312 72.675781 28.644531 72.675781 C 29.222656 72.675781 29.6875 73.144531 29.6875 73.722656 C 29.6875 74.300781 29.222656 74.769531 28.644531 74.769531 " fill-opacity="1" fill-rule="nonzero"/><path fill="#6bcfe4" d="M 28.644531 72.675781 C 28.070312 72.675781 27.601562 73.144531 27.601562 73.722656 C 27.601562 74.300781 28.070312 74.769531 28.644531 74.769531 C 29.222656 74.769531 29.6875 74.300781 29.6875 73.722656 C 29.6875 73.144531 29.222656 72.675781 28.644531 72.675781 M 28.644531 74.34375 C 28.304688 74.34375 28.027344 74.066406 28.027344 73.722656 C 28.027344 73.378906 28.304688 73.097656 28.644531 73.097656 C 28.988281 73.097656 29.265625 73.378906 29.265625 73.722656 C 29.265625 74.066406 28.988281 74.34375 28.644531 74.34375 " fill-opacity="1" fill-rule="nonzero"/><path fill="#e2f6fd" d="M 28.644531 73.097656 C 28.304688 73.097656 28.027344 73.378906 28.027344 73.722656 C 28.027344 74.066406 28.304688 74.34375 28.644531 74.34375 C 28.988281 74.34375 29.265625 74.066406 29.265625 73.722656 C 29.265625 73.378906 28.988281 73.097656 28.644531 73.097656 " fill-opacity="1" fill-rule="nonzero"/><path fill="#3891ba" d="M 68.246094 30.226562 C 67.417969 30.226562 66.75 30.902344 66.75 31.734375 C 66.75 32.566406 67.417969 33.238281 68.246094 33.238281 C 69.074219 33.238281 69.746094 32.566406 69.746094 31.734375 C 69.746094 30.902344 69.074219 30.226562 68.246094 30.226562 M 68.246094 32.78125 C 67.671875 32.78125 67.203125 32.3125 67.203125 31.734375 C 67.203125 31.15625 67.671875 30.6875 68.246094 30.6875 C 68.824219 30.6875 69.289062 31.15625 69.289062 31.734375 C 69.289062 32.3125 68.824219 32.78125 68.246094 32.78125 " fill-opacity="1" fill-rule="nonzero"/><path fill="#46c2ca" d="M 68.246094 30.6875 C 67.671875 30.6875 67.203125 31.15625 67.203125 31.734375 C 67.203125 32.3125 67.671875 32.78125 68.246094 32.78125 C 68.824219 32.78125 69.289062 32.3125 69.289062 31.734375 C 69.289062 31.15625 68.824219 30.6875 68.246094 30.6875 M 68.246094 32.355469 C 67.90625 32.355469 67.628906 32.078125 67.628906 31.734375 C 67.628906 31.390625 67.90625 31.109375 68.246094 31.109375 C 68.589844 31.109375 68.867188 31.390625 68.867188 31.734375 C 68.867188 32.078125 68.589844 32.355469 68.246094 32.355469 " fill-opacity="1" fill-rule="nonzero"/><path fill="#dbf3f5" d="M 68.246094 31.109375 C 67.90625 31.109375 67.625 31.390625 67.625 31.734375 C 67.625 32.078125 67.90625 32.355469 68.246094 32.355469 C 68.589844 32.355469 68.867188 32.078125 68.867188 31.734375 C 68.867188 31.390625 68.589844 31.109375 68.246094 31.109375 " fill-opacity="1" fill-rule="nonzero"/><path fill="#5bb4e0" d="M 52.515625 43.910156 C 51.6875 43.910156 51.015625 44.582031 51.015625 45.414062 C 51.015625 46.246094 51.6875 46.917969 52.515625 46.917969 C 52.980469 46.917969 53.394531 46.707031 53.667969 46.378906 L 53.445312 45.886719 C 53.273438 46.226562 52.921875 46.460938 52.515625 46.460938 C 51.941406 46.460938 51.472656 45.992188 51.472656 45.414062 C 51.472656 44.835938 51.941406 44.367188 52.515625 44.367188 C 52.605469 44.367188 52.695312 44.378906 52.777344 44.398438 L 52.558594 43.910156 C 52.542969 43.910156 52.53125 43.910156 52.515625 43.910156 " fill-opacity="1" fill-rule="nonzero"/><path fill="#9adee8" d="M 52.558594 43.910156 L 52.777344 44.398438 C 53.226562 44.515625 53.558594 44.925781 53.558594 45.414062 C 53.558594 45.585938 53.519531 45.746094 53.445312 45.886719 L 53.667969 46.378906 C 53.882812 46.117188 54.015625 45.78125 54.015625 45.414062 C 54.015625 44.597656 53.367188 43.929688 52.558594 43.910156 " fill-opacity="1" fill-rule="nonzero"/><path fill="#6bcfe4" d="M 52.515625 44.367188 C 51.941406 44.367188 51.472656 44.835938 51.472656 45.414062 C 51.472656 45.992188 51.941406 46.460938 52.515625 46.460938 C 52.921875 46.460938 53.273438 46.226562 53.445312 45.886719 L 52.777344 44.398438 C 52.695312 44.378906 52.605469 44.367188 52.515625 44.367188 M 52.515625 46.035156 C 52.175781 46.035156 51.894531 45.757812 51.894531 45.414062 C 51.894531 45.070312 52.175781 44.789062 52.515625 44.789062 C 52.859375 44.789062 53.136719 45.070312 53.136719 45.414062 C 53.136719 45.757812 52.859375 46.035156 52.515625 46.035156 " fill-opacity="1" fill-rule="nonzero"/><path fill="#a6e1de" d="M 52.777344 44.398438 L 53.445312 45.886719 C 53.519531 45.746094 53.558594 45.585938 53.558594 45.414062 C 53.558594 44.925781 53.226562 44.515625 52.777344 44.398438 " fill-opacity="1" fill-rule="nonzero"/><path fill="#e2f6fd" d="M 52.515625 44.789062 C 52.175781 44.789062 51.894531 45.070312 51.894531 45.414062 C 51.894531 45.757812 52.175781 46.035156 52.515625 46.035156 C 52.859375 46.035156 53.136719 45.757812 53.136719 45.414062 C 53.136719 45.070312 52.859375 44.789062 52.515625 44.789062 " fill-opacity="1" fill-rule="nonzero"/><path fill="#9adee8" d="M 38.761719 15.058594 C 37.933594 15.058594 37.261719 15.730469 37.261719 16.5625 C 37.261719 17.394531 37.933594 18.070312 38.761719 18.070312 C 39.589844 18.070312 40.261719 17.394531 40.261719 16.5625 C 40.261719 15.730469 39.589844 15.058594 38.761719 15.058594 M 38.761719 17.609375 C 38.1875 17.609375 37.71875 17.140625 37.71875 16.5625 C 37.71875 15.984375 38.1875 15.515625 38.761719 15.515625 C 39.339844 15.515625 39.804688 15.984375 39.804688 16.5625 C 39.804688 17.140625 39.339844 17.609375 38.761719 17.609375 " fill-opacity="1" fill-rule="nonzero"/><path fill="#a6e1de" d="M 38.761719 15.515625 C 38.1875 15.515625 37.71875 15.984375 37.71875 16.5625 C 37.71875 17.140625 38.1875 17.609375 38.761719 17.609375 C 39.339844 17.609375 39.804688 17.140625 39.804688 16.5625 C 39.804688 15.984375 39.339844 15.515625 38.761719 15.515625 M 38.761719 17.183594 C 38.417969 17.183594 38.140625 16.90625 38.140625 16.5625 C 38.140625 16.21875 38.417969 15.941406 38.761719 15.941406 C 39.105469 15.941406 39.382812 16.21875 39.382812 16.5625 C 39.382812 16.90625 39.105469 17.183594 38.761719 17.183594 " fill-opacity="1" fill-rule="nonzero"/><path fill="#eef9fd" d="M 38.761719 15.9375 C 38.421875 15.9375 38.144531 16.21875 38.144531 16.5625 C 38.144531 16.90625 38.421875 17.183594 38.761719 17.183594 C 39.105469 17.183594 39.382812 16.90625 39.382812 16.5625 C 39.382812 16.21875 39.105469 15.9375 38.761719 15.9375 " fill-opacity="1" fill-rule="nonzero"/><path fill="#9adee8" d="M 48.550781 28.722656 C 47.722656 28.722656 47.050781 29.398438 47.050781 30.226562 C 47.050781 30.386719 47.078125 30.539062 47.121094 30.683594 L 47.570312 30.578125 C 47.53125 30.46875 47.507812 30.351562 47.507812 30.226562 C 47.507812 29.648438 47.976562 29.179688 48.550781 29.179688 C 49.085938 29.179688 49.527344 29.585938 49.585938 30.105469 L 50.035156 30 C 49.925781 29.277344 49.304688 28.722656 48.550781 28.722656 " fill-opacity="1" fill-rule="nonzero"/><path fill="#9adee8" d="M 50.035156 30 L 49.585938 30.105469 C 49.59375 30.144531 49.59375 30.1875 49.59375 30.226562 C 49.59375 30.804688 49.128906 31.273438 48.550781 31.273438 C 48.097656 31.273438 47.714844 30.984375 47.570312 30.578125 L 47.121094 30.683594 C 47.316406 31.292969 47.882812 31.734375 48.550781 31.734375 C 49.378906 31.734375 50.050781 31.058594 50.050781 30.226562 C 50.050781 30.152344 50.046875 30.074219 50.035156 30 " fill-opacity="1" fill-rule="nonzero"/><path fill="#a6e1de" d="M 48.550781 29.179688 C 47.976562 29.179688 47.507812 29.648438 47.507812 30.226562 C 47.507812 30.351562 47.53125 30.46875 47.570312 30.578125 L 47.984375 30.480469 C 47.949219 30.402344 47.929688 30.316406 47.929688 30.226562 C 47.929688 29.882812 48.210938 29.605469 48.550781 29.605469 C 48.886719 29.605469 49.160156 29.871094 49.171875 30.203125 L 49.585938 30.105469 C 49.527344 29.585938 49.085938 29.179688 48.550781 29.179688 " fill-opacity="1" fill-rule="nonzero"/><path fill="#a6e1de" d="M 49.585938 30.105469 L 49.171875 30.203125 C 49.171875 30.210938 49.171875 30.21875 49.171875 30.226562 C 49.171875 30.574219 48.894531 30.851562 48.550781 30.851562 C 48.300781 30.851562 48.082031 30.699219 47.984375 30.480469 L 47.570312 30.578125 C 47.714844 30.984375 48.097656 31.273438 48.550781 31.273438 C 49.128906 31.273438 49.59375 30.804688 49.59375 30.226562 C 49.59375 30.1875 49.59375 30.144531 49.585938 30.105469 " fill-opacity="1" fill-rule="nonzero"/><path fill="#eef9fd" d="M 48.550781 29.605469 C 48.210938 29.605469 47.929688 29.882812 47.929688 30.226562 C 47.929688 30.316406 47.949219 30.402344 47.984375 30.480469 L 49.171875 30.203125 C 49.160156 29.871094 48.886719 29.605469 48.550781 29.605469 " fill-opacity="1" fill-rule="nonzero"/><path fill="#eef9fd" d="M 49.171875 30.203125 L 47.984375 30.480469 C 48.082031 30.699219 48.300781 30.851562 48.550781 30.851562 C 48.894531 30.851562 49.171875 30.574219 49.171875 30.226562 C 49.171875 30.21875 49.171875 30.210938 49.171875 30.203125 " fill-opacity="1" fill-rule="nonzero"/><path fill="#ffffff" d="M 24.476562 11.210938 L 38.753906 16.683594 L 59.578125 11.738281 L 48.355469 30.332031 L 68.109375 31.839844 L 62.714844 58.878906 L 42.8125 71.632812 L 61.066406 77.097656 L 46.085938 88.527344 L 28.722656 73.617188 L 26.640625 54.023438 L 30.019531 38.949219 L 29.796875 38.898438 L 26.410156 54.011719 L 28.503906 73.730469 L 46.078125 88.824219 L 61.570312 77.007812 L 43.359375 71.554688 L 62.921875 59.019531 L 68.386719 31.628906 L 48.746094 30.128906 L 60.0625 11.382812 L 38.769531 16.441406 L 24.558594 10.992188 L 24.476562 11.210938 " fill-opacity="1" fill-rule="nonzero"/><path fill="#ffffff" d="M 38.667969 16.628906 L 48.457031 30.296875 L 48.644531 30.160156 L 38.855469 16.496094 " fill-opacity="1" fill-rule="nonzero"/><path fill="#ffffff" d="M 52.476562 45.304688 L 27.042969 54.179688 L 27.117188 54.398438 L 52.554688 45.523438 " fill-opacity="1" fill-rule="nonzero"/><path fill="#ffffff" d="M 62.703125 58.9375 L 61.203125 77.042969 L 61.433594 77.0625 L 62.933594 58.957031 " fill-opacity="1" fill-rule="nonzero"/><path fill="#ffffff" d="M 42.972656 71.855469 L 45.96875 88.398438 L 46.199219 88.355469 L 43.199219 71.816406 " fill-opacity="1" fill-rule="nonzero"/><path fill="#ffffff" d="M 26.699219 54.097656 L 43 71.671875 L 43.171875 71.511719 L 26.867188 53.9375 " fill-opacity="1" fill-rule="nonzero"/><path fill="#ffffff" d="M 52.640625 45.585938 L 42.976562 71.550781 L 43.195312 71.632812 L 52.859375 45.667969 " fill-opacity="1" fill-rule="nonzero"/><path fill="#ffffff" d="M 62.910156 58.878906 L 52.609375 45.34375 L 52.425781 45.484375 L 62.726562 59.019531 " fill-opacity="1" fill-rule="nonzero"/><path fill="#ffffff" d="M 48.503906 30.125 L 29.859375 38.820312 L 29.957031 39.03125 L 48.601562 30.332031 " fill-opacity="1" fill-rule="nonzero"/><path fill="#ffffff" d="M 68.171875 31.648438 L 52.671875 45.328125 L 52.824219 45.5 L 68.324219 31.820312 " fill-opacity="1" fill-rule="nonzero"/><path fill="#ffffff" d="M 59.710938 11.605469 L 68.140625 31.777344 L 68.355469 31.6875 L 59.925781 11.515625 " fill-opacity="1" fill-rule="nonzero"/><path fill="#ffffff" d="M 38.421875 16.652344 L 30.027344 38.949219 L 30.242188 39.03125 L 38.640625 16.734375 " fill-opacity="1" fill-rule="nonzero"/><path fill="#ffffff" d="M 24.402344 11.125 L 30.019531 39.011719 L 30.246094 38.964844 L 24.628906 11.078125 " fill-opacity="1" fill-rule="nonzero"/><path fill="#ffffff" d="M 52.78125 45.300781 L 30.164062 38.878906 L 30.101562 39.101562 L 52.71875 45.527344 " fill-opacity="1" fill-rule="nonzero"/><path fill="#ffffff" d="M 48.441406 30.257812 L 52.40625 45.445312 L 52.628906 45.382812 L 48.664062 30.199219 " fill-opacity="1" fill-rule="nonzero"/><path fill="#ffffff" d="M 43.070312 71.71875 L 28.851562 73.605469 L 28.882812 73.835938 L 43.101562 71.949219 " fill-opacity="1" fill-rule="nonzero"/></svg>