<svg xmlns="http://www.w3.org/2000/svg" xmlns:xlink="http://www.w3.org/1999/xlink" width="500" zoomAndPan="magnify" viewBox="0 0 375 93.749996" height="125" preserveAspectRatio="xMidYMid meet" version="1.0"><defs><g/></defs><g fill="#310686" fill-opacity="1"><g transform="translate(24.910136, 74.052519)"><g><path d="M 4.921875 -49.8125 L 16.234375 -51.640625 L 16.234375 -39.890625 L 29.796875 -39.890625 L 29.796875 -30.484375 L 16.234375 -30.484375 L 16.234375 -16.453125 C 16.234375 -14.078125 16.648438 -12.179688 17.484375 -10.765625 C 18.316406 -9.347656 19.992188 -8.640625 22.515625 -8.640625 C 23.734375 -8.640625 24.984375 -8.753906 26.265625 -8.984375 C 27.554688 -9.210938 28.734375 -9.53125 29.796875 -9.9375 L 31.390625 -1.140625 C 30.023438 -0.578125 28.507812 -0.0976562 26.84375 0.296875 C 25.175781 0.703125 23.128906 0.90625 20.703125 0.90625 C 17.617188 0.90625 15.066406 0.488281 13.046875 -0.34375 C 11.023438 -1.175781 9.40625 -2.335938 8.1875 -3.828125 C 6.976562 -5.316406 6.128906 -7.125 5.640625 -9.25 C 5.160156 -11.375 4.921875 -13.722656 4.921875 -16.296875 Z M 4.921875 -49.8125 "/></g></g></g><g fill="#310686" fill-opacity="1"><g transform="translate(59.715841, 74.052519)"><g><path d="M 3.40625 -19.640625 C 3.40625 -23.179688 3.945312 -26.273438 5.03125 -28.921875 C 6.125 -31.578125 7.554688 -33.789062 9.328125 -35.5625 C 11.097656 -37.332031 13.128906 -38.671875 15.421875 -39.578125 C 17.722656 -40.492188 20.085938 -40.953125 22.515625 -40.953125 C 28.179688 -40.953125 32.65625 -39.21875 35.9375 -35.75 C 39.226562 -32.289062 40.875 -27.195312 40.875 -20.46875 C 40.875 -19.8125 40.847656 -19.09375 40.796875 -18.3125 C 40.742188 -17.53125 40.691406 -16.835938 40.640625 -16.234375 L 15.015625 -16.234375 C 15.265625 -13.898438 16.347656 -12.050781 18.265625 -10.6875 C 20.191406 -9.320312 22.773438 -8.640625 26.015625 -8.640625 C 28.085938 -8.640625 30.117188 -8.828125 32.109375 -9.203125 C 34.109375 -9.585938 35.738281 -10.054688 37 -10.609375 L 38.515625 -1.4375 C 37.910156 -1.132812 37.101562 -0.832031 36.09375 -0.53125 C 35.082031 -0.226562 33.957031 0.0351562 32.71875 0.265625 C 31.476562 0.492188 30.148438 0.679688 28.734375 0.828125 C 27.316406 0.984375 25.90625 1.0625 24.5 1.0625 C 20.90625 1.0625 17.78125 0.53125 15.125 -0.53125 C 12.46875 -1.59375 10.269531 -3.046875 8.53125 -4.890625 C 6.789062 -6.734375 5.5 -8.914062 4.65625 -11.4375 C 3.820312 -13.96875 3.40625 -16.703125 3.40625 -19.640625 Z M 29.953125 -23.96875 C 29.898438 -24.925781 29.734375 -25.859375 29.453125 -26.765625 C 29.179688 -27.671875 28.753906 -28.476562 28.171875 -29.1875 C 27.585938 -29.894531 26.851562 -30.476562 25.96875 -30.9375 C 25.082031 -31.394531 23.984375 -31.625 22.671875 -31.625 C 21.410156 -31.625 20.320312 -31.40625 19.40625 -30.96875 C 18.5 -30.539062 17.742188 -29.972656 17.140625 -29.265625 C 16.535156 -28.554688 16.066406 -27.734375 15.734375 -26.796875 C 15.398438 -25.867188 15.160156 -24.925781 15.015625 -23.96875 Z M 29.953125 -23.96875 "/></g></g></g><g fill="#310686" fill-opacity="1"><g transform="translate(105.137626, 74.052519)"><g><path d="M 3.40625 -19.9375 C 3.40625 -22.820312 3.875 -25.539062 4.8125 -28.09375 C 5.75 -30.644531 7.101562 -32.867188 8.875 -34.765625 C 10.644531 -36.660156 12.789062 -38.164062 15.3125 -39.28125 C 17.84375 -40.394531 20.726562 -40.953125 23.96875 -40.953125 C 26.082031 -40.953125 28.023438 -40.757812 29.796875 -40.375 C 31.566406 -40 33.285156 -39.457031 34.953125 -38.75 L 32.609375 -29.71875 C 31.546875 -30.125 30.378906 -30.476562 29.109375 -30.78125 C 27.847656 -31.082031 26.4375 -31.234375 24.875 -31.234375 C 21.53125 -31.234375 19.035156 -30.195312 17.390625 -28.125 C 15.753906 -26.050781 14.9375 -23.320312 14.9375 -19.9375 C 14.9375 -16.351562 15.707031 -13.570312 17.25 -11.59375 C 18.789062 -9.625 21.484375 -8.640625 25.328125 -8.640625 C 26.691406 -8.640625 28.15625 -8.765625 29.71875 -9.015625 C 31.289062 -9.273438 32.734375 -9.679688 34.046875 -10.234375 L 35.640625 -0.984375 C 34.328125 -0.429688 32.679688 0.046875 30.703125 0.453125 C 28.734375 0.859375 26.5625 1.0625 24.1875 1.0625 C 20.550781 1.0625 17.414062 0.519531 14.78125 -0.5625 C 12.15625 -1.65625 9.992188 -3.132812 8.296875 -5 C 6.609375 -6.875 5.367188 -9.085938 4.578125 -11.640625 C 3.796875 -14.191406 3.40625 -16.957031 3.40625 -19.9375 Z M 3.40625 -19.9375 "/></g></g></g><g fill="#310686" fill-opacity="1"><g transform="translate(144.189765, 74.052519)"><g><path d="M 5.3125 0 L 5.3125 -57.015625 L 16.609375 -58.84375 L 16.609375 -39.734375 C 17.367188 -39.984375 18.34375 -40.222656 19.53125 -40.453125 C 20.71875 -40.679688 21.863281 -40.796875 22.96875 -40.796875 C 26.207031 -40.796875 28.898438 -40.351562 31.046875 -39.46875 C 33.203125 -38.582031 34.921875 -37.328125 36.203125 -35.703125 C 37.492188 -34.085938 38.40625 -32.164062 38.9375 -29.9375 C 39.46875 -27.71875 39.734375 -25.242188 39.734375 -22.515625 L 39.734375 0 L 28.4375 0 L 28.4375 -21.15625 C 28.4375 -24.789062 27.96875 -27.367188 27.03125 -28.890625 C 26.09375 -30.410156 24.363281 -31.171875 21.84375 -31.171875 C 20.832031 -31.171875 19.882812 -31.082031 19 -30.90625 C 18.113281 -30.726562 17.316406 -30.535156 16.609375 -30.328125 L 16.609375 0 Z M 5.3125 0 "/></g></g></g><g fill="#42bfd0" fill-opacity="1"><g transform="translate(189.997238, 74.052519)"><g><path d="M 16.609375 0 L 5.3125 0 L 5.3125 -39.890625 L 16.609375 -39.890625 Z M 17.671875 -51.40625 C 17.671875 -49.332031 17 -47.703125 15.65625 -46.515625 C 14.320312 -45.328125 12.742188 -44.734375 10.921875 -44.734375 C 9.097656 -44.734375 7.515625 -45.328125 6.171875 -46.515625 C 4.835938 -47.703125 4.171875 -49.332031 4.171875 -51.40625 C 4.171875 -53.476562 4.835938 -55.109375 6.171875 -56.296875 C 7.515625 -57.484375 9.097656 -58.078125 10.921875 -58.078125 C 12.742188 -58.078125 14.320312 -57.484375 15.65625 -56.296875 C 17 -55.109375 17.671875 -53.476562 17.671875 -51.40625 Z M 17.671875 -51.40625 "/></g></g></g><g fill="#42bfd0" fill-opacity="1"><g transform="translate(213.049436, 74.052519)"><g><path d="M 14.9375 -20.25 C 14.9375 -16.757812 15.71875 -13.953125 17.28125 -11.828125 C 18.851562 -9.703125 21.179688 -8.640625 24.265625 -8.640625 C 25.273438 -8.640625 26.207031 -8.675781 27.0625 -8.75 C 27.925781 -8.832031 28.632812 -8.925781 29.1875 -9.03125 L 29.1875 -29.578125 C 28.476562 -30.023438 27.554688 -30.398438 26.421875 -30.703125 C 25.285156 -31.015625 24.132812 -31.171875 22.96875 -31.171875 C 17.613281 -31.171875 14.9375 -27.53125 14.9375 -20.25 Z M 40.5 -1.296875 C 39.476562 -0.984375 38.3125 -0.6875 37 -0.40625 C 35.6875 -0.132812 34.304688 0.0976562 32.859375 0.296875 C 31.421875 0.503906 29.957031 0.671875 28.46875 0.796875 C 26.976562 0.921875 25.550781 0.984375 24.1875 0.984375 C 20.90625 0.984375 17.972656 0.503906 15.390625 -0.453125 C 12.816406 -1.410156 10.644531 -2.785156 8.875 -4.578125 C 7.101562 -6.378906 5.75 -8.554688 4.8125 -11.109375 C 3.875 -13.660156 3.40625 -16.53125 3.40625 -19.71875 C 3.40625 -22.945312 3.8125 -25.863281 4.625 -28.46875 C 5.4375 -31.070312 6.597656 -33.285156 8.109375 -35.109375 C 9.628906 -36.929688 11.488281 -38.320312 13.6875 -39.28125 C 15.882812 -40.238281 18.398438 -40.71875 21.234375 -40.71875 C 22.796875 -40.71875 24.195312 -40.566406 25.4375 -40.265625 C 26.675781 -39.960938 27.925781 -39.53125 29.1875 -38.96875 L 29.1875 -57.015625 L 40.5 -58.84375 Z M 40.5 -1.296875 "/></g></g></g><g fill="#42bfd0" fill-opacity="1"><g transform="translate(259.987799, 74.052519)"><g><path d="M 3.40625 -19.640625 C 3.40625 -23.179688 3.945312 -26.273438 5.03125 -28.921875 C 6.125 -31.578125 7.554688 -33.789062 9.328125 -35.5625 C 11.097656 -37.332031 13.128906 -38.671875 15.421875 -39.578125 C 17.722656 -40.492188 20.085938 -40.953125 22.515625 -40.953125 C 28.179688 -40.953125 32.65625 -39.21875 35.9375 -35.75 C 39.226562 -32.289062 40.875 -27.195312 40.875 -20.46875 C 40.875 -19.8125 40.847656 -19.09375 40.796875 -18.3125 C 40.742188 -17.53125 40.691406 -16.835938 40.640625 -16.234375 L 15.015625 -16.234375 C 15.265625 -13.898438 16.347656 -12.050781 18.265625 -10.6875 C 20.191406 -9.320312 22.773438 -8.640625 26.015625 -8.640625 C 28.085938 -8.640625 30.117188 -8.828125 32.109375 -9.203125 C 34.109375 -9.585938 35.738281 -10.054688 37 -10.609375 L 38.515625 -1.4375 C 37.910156 -1.132812 37.101562 -0.832031 36.09375 -0.53125 C 35.082031 -0.226562 33.957031 0.0351562 32.71875 0.265625 C 31.476562 0.492188 30.148438 0.679688 28.734375 0.828125 C 27.316406 0.984375 25.90625 1.0625 24.5 1.0625 C 20.90625 1.0625 17.78125 0.53125 15.125 -0.53125 C 12.46875 -1.59375 10.269531 -3.046875 8.53125 -4.890625 C 6.789062 -6.734375 5.5 -8.914062 4.65625 -11.4375 C 3.820312 -13.96875 3.40625 -16.703125 3.40625 -19.640625 Z M 29.953125 -23.96875 C 29.898438 -24.925781 29.734375 -25.859375 29.453125 -26.765625 C 29.179688 -27.671875 28.753906 -28.476562 28.171875 -29.1875 C 27.585938 -29.894531 26.851562 -30.476562 25.96875 -30.9375 C 25.082031 -31.394531 23.984375 -31.625 22.671875 -31.625 C 21.410156 -31.625 20.320312 -31.40625 19.40625 -30.96875 C 18.5 -30.539062 17.742188 -29.972656 17.140625 -29.265625 C 16.535156 -28.554688 16.066406 -27.734375 15.734375 -26.796875 C 15.398438 -25.867188 15.160156 -24.925781 15.015625 -23.96875 Z M 29.953125 -23.96875 "/></g></g></g><g fill="#42bfd0" fill-opacity="1"><g transform="translate(305.409578, 74.052519)"><g><path d="M 5.3125 -38.515625 C 7.226562 -39.078125 9.703125 -39.597656 12.734375 -40.078125 C 15.765625 -40.554688 18.953125 -40.796875 22.296875 -40.796875 C 25.679688 -40.796875 28.5 -40.351562 30.75 -39.46875 C 33 -38.582031 34.78125 -37.328125 36.09375 -35.703125 C 37.40625 -34.085938 38.335938 -32.164062 38.890625 -29.9375 C 39.453125 -27.71875 39.734375 -25.242188 39.734375 -22.515625 L 39.734375 0 L 28.4375 0 L 28.4375 -21.15625 C 28.4375 -24.789062 27.953125 -27.367188 26.984375 -28.890625 C 26.023438 -30.410156 24.234375 -31.171875 21.609375 -31.171875 C 20.796875 -31.171875 19.9375 -31.128906 19.03125 -31.046875 C 18.125 -30.972656 17.316406 -30.882812 16.609375 -30.78125 L 16.609375 0 L 5.3125 0 Z M 5.3125 -38.515625 "/></g></g></g></svg>