<svg xmlns="http://www.w3.org/2000/svg" xmlns:xlink="http://www.w3.org/1999/xlink" width="400" zoomAndPan="magnify" viewBox="0 0 300 374.999991" height="500" preserveAspectRatio="xMidYMid meet" version="1.0"><defs><clipPath id="81aed195e6"><path d="M 3.515625 0 L 296.765625 0 L 296.765625 375 L 3.515625 375 Z M 3.515625 0 " clip-rule="nonzero"/></clipPath><clipPath id="de6fbaddfa"><path d="M 47 11 L 296.765625 11 L 296.765625 363 L 47 363 Z M 47 11 " clip-rule="nonzero"/></clipPath><clipPath id="0356ec6625"><path d="M 124 21 L 296.765625 21 L 296.765625 130 L 124 130 Z M 124 21 " clip-rule="nonzero"/></clipPath><clipPath id="80259cd732"><path d="M 232 102 L 296.765625 102 L 296.765625 123 L 232 123 Z M 232 102 " clip-rule="nonzero"/></clipPath><clipPath id="906cf291c3"><path d="M 96.445312 36 L 99.128906 36 L 99.128906 44.523438 L 96.445312 44.523438 Z M 96.445312 36 " clip-rule="nonzero"/></clipPath><clipPath id="c63e181ce9"><path d="M 97.648438 36.042969 C 96.988281 37.027344 96.601562 38.214844 96.601562 39.488281 C 96.601562 41.507812 97.566406 43.296875 99.058594 44.425781 L 97.648438 36.042969 " clip-rule="nonzero"/></clipPath></defs><g clip-path="url(#81aed195e6)"><path fill="#4a9bdb" d="M 3.53125 126.886719 L 23.59375 250.410156 L 48.421875 303.417969 L 150.605469 374.976562 L 233.707031 374.976562 L 242.292969 362.335938 L 251.863281 348.265625 L 271.921875 286.234375 L 289.09375 196.539062 L 284.324219 150.738281 L 296.75 110.683594 L 271.921875 21.941406 L 226.074219 29.566406 L 130.542969 25.757812 L 93.566406 11.714844 L 62.730469 -0.00390625 L 40.761719 29.566406 L 3.53125 126.886719 " fill-opacity="1" fill-rule="nonzero"/></g><g clip-path="url(#de6fbaddfa)"><path fill="#62cce5" d="M 47.46875 226.140625 L 124.824219 284.578125 L 166.847656 285.769531 L 224.992188 319.054688 L 210.785156 349.699219 L 242.292969 362.335938 L 251.859375 348.265625 L 271.921875 286.234375 L 289.089844 196.539062 L 284.320312 150.738281 L 296.75 110.683594 L 271.921875 21.941406 L 226.074219 29.570312 L 130.542969 25.757812 L 93.566406 11.714844 L 108.574219 101.128906 L 88.542969 160.773438 L 47.46875 226.140625 " fill-opacity="1" fill-rule="nonzero"/></g><path fill="#4a9bdb" d="M 219.140625 251.417969 L 166.847656 285.769531 L 249.050781 273.007812 L 219.140625 251.417969 " fill-opacity="1" fill-rule="nonzero"/><path fill="#4a9bdb" d="M 237.042969 164.78125 L 275.257812 236.628906 L 224.394531 256.667969 L 237.042969 164.78125 " fill-opacity="1" fill-rule="nonzero"/><path fill="#4a9bdb" d="M 247.4375 228.28125 L 224.394531 256.667969 L 187.386719 226.132812 L 209.113281 217.785156 L 247.4375 228.28125 " fill-opacity="1" fill-rule="nonzero"/><path fill="#8edaf1" d="M 205.292969 275.035156 L 228.695312 259.289062 L 249.050781 273.007812 L 235.738281 282.90625 L 205.292969 275.035156 " fill-opacity="1" fill-rule="nonzero"/><g clip-path="url(#0356ec6625)"><path fill="#8edaf1" d="M 124.824219 103.042969 L 130.542969 25.757812 L 226.074219 29.570312 L 271.921875 21.945312 L 296.746094 110.675781 L 205.648438 129.042969 L 124.824219 103.042969 " fill-opacity="1" fill-rule="nonzero"/></g><path fill="#2c66a6" d="M 280.984375 106.859375 L 295.710938 114.015625 L 284.328125 150.753906 L 287.113281 177.476562 L 268.570312 181.285156 L 237.855469 166.839844 L 224.390625 132.859375 L 232.15625 112.226562 L 280.984375 106.859375 " fill-opacity="1" fill-rule="nonzero"/><path fill="#4a9bdb" d="M 238.824219 122.214844 L 228.132812 142.292969 L 224.394531 132.859375 L 232.15625 112.226562 L 238.824219 122.214844 " fill-opacity="1" fill-rule="nonzero"/><path fill="#4a9bdb" d="M 185.953125 114.011719 L 189.769531 110.671875 L 203.382812 140.015625 L 231.609375 203.011719 L 203.289062 222.316406 L 180.222656 151.707031 L 174.96875 128.804688 L 185.953125 114.011719 " fill-opacity="1" fill-rule="nonzero"/><path fill="#2c66a6" d="M 180.222656 114.011719 L 189.769531 110.671875 L 180.222656 137.871094 L 180.222656 151.707031 L 132.464844 181.285156 L 88.53125 160.769531 L 75.15625 126.894531 L 109.542969 106.859375 L 180.222656 114.011719 " fill-opacity="1" fill-rule="nonzero"/><path fill="#16344f" d="M 189.773438 110.671875 L 183.085938 121.410156 L 111.453125 110.671875 L 75.160156 126.894531 L 108.585938 101.132812 L 189.773438 110.671875 " fill-opacity="1" fill-rule="nonzero"/><g clip-path="url(#80259cd732)"><path fill="#16344f" d="M 232.15625 112.222656 L 281.222656 102.921875 L 296.746094 110.675781 L 295.710938 114.015625 L 281.582031 110.078125 L 238.824219 122.214844 L 232.15625 112.222656 " fill-opacity="1" fill-rule="nonzero"/></g><path fill="#8edaf1" d="M 229.914062 118.183594 L 224.394531 132.859375 L 255.675781 211.820312 L 215.558594 207.523438 L 225.828125 190.113281 L 194.308594 120.453125 L 212.695312 116.160156 L 229.914062 118.183594 " fill-opacity="1" fill-rule="nonzero"/><path fill="#8edaf1" d="M 258.78125 290.300781 C 258.0625 290.539062 239.675781 304.378906 239.675781 304.378906 L 204.339844 304.378906 L 165.609375 286 L 206.964844 281.117188 L 250.421875 284.578125 L 265.199219 286.753906 L 258.78125 290.300781 " fill-opacity="1" fill-rule="nonzero"/><path fill="#16344f" d="M 249.050781 273.007812 C 248.097656 273.007812 229.410156 277.183594 229.410156 277.183594 L 210.785156 271.222656 L 166.847656 285.769531 L 204.578125 288.632812 L 231.558594 288.632812 L 265.703125 286.722656 L 249.050781 273.007812 " fill-opacity="1" fill-rule="nonzero"/><path fill="#4a9bdb" d="M 238.722656 310.578125 L 206.964844 310.578125 L 224.992188 319.054688 Z M 238.722656 310.578125 " fill-opacity="1" fill-rule="nonzero"/><path fill="#2c66a6" d="M 150.613281 374.988281 L 190.964844 349.699219 L 241.109375 351.132812 L 249.070312 352.371094 L 233.707031 374.988281 L 150.613281 374.988281 " fill-opacity="1" fill-rule="nonzero"/><path fill="#16344f" d="M 124.824219 284.578125 L 99.035156 238.058594 L 47.460938 226.132812 Z M 124.824219 284.578125 " fill-opacity="1" fill-rule="nonzero"/><path fill="#16344f" d="M 220.019531 208.003906 L 197.890625 211.820312 L 187.386719 226.132812 L 217.851562 226.132812 L 235.152344 230.5 L 247.4375 228.28125 L 255.675781 211.820312 L 220.019531 208.003906 " fill-opacity="1" fill-rule="nonzero"/><path fill="#4a9bdb" d="M 164.988281 151.117188 L 125.945312 158.394531 L 112.242188 148.140625 C 112.242188 148.140625 131.457031 135.289062 132.285156 135.238281 C 133.117188 135.1875 167.066406 138.117188 167.066406 138.117188 L 164.988281 151.117188 " fill-opacity="1" fill-rule="nonzero"/><path fill="#4a9bdb" d="M 274.847656 149.671875 L 243.796875 151.667969 C 243.796875 151.667969 249.613281 135.238281 250.332031 135.238281 C 251.046875 135.238281 278.144531 138.15625 278.144531 138.15625 L 280.414062 145.65625 L 274.847656 149.671875 " fill-opacity="1" fill-rule="nonzero"/><path fill="#8edaf1" d="M 237.859375 166.839844 L 287.117188 177.472656 L 288.746094 198.347656 L 237.859375 166.839844 " fill-opacity="1" fill-rule="nonzero"/><g clip-path="url(#906cf291c3)"><g clip-path="url(#c63e181ce9)"><path fill="#5bb4e0" d="M 96.601562 44.425781 L 99.058594 44.425781 L 99.058594 36.042969 L 96.601562 36.042969 L 96.601562 44.425781 " fill-opacity="1" fill-rule="nonzero"/></g></g><path fill="#73d1de" d="M 102.796875 33.300781 C 100.652344 33.300781 98.761719 34.386719 97.652344 36.042969 L 99.058594 44.425781 C 100.097656 45.214844 101.394531 45.679688 102.796875 45.679688 C 106.21875 45.679688 108.992188 42.90625 108.992188 39.488281 C 108.992188 36.070312 106.21875 33.300781 102.796875 33.300781 M 102.796875 43.792969 C 100.417969 43.792969 98.488281 41.867188 98.488281 39.488281 C 98.488281 37.113281 100.417969 35.183594 102.796875 35.183594 C 105.179688 35.183594 107.109375 37.113281 107.109375 39.488281 C 107.109375 41.867188 105.179688 43.792969 102.796875 43.792969 " fill-opacity="1" fill-rule="nonzero"/><path fill="#83d5d4" d="M 102.796875 35.183594 C 100.417969 35.183594 98.488281 37.109375 98.488281 39.488281 C 98.488281 41.867188 100.417969 43.792969 102.796875 43.792969 C 105.179688 43.792969 107.109375 41.867188 107.109375 39.488281 C 107.109375 37.109375 105.179688 35.183594 102.796875 35.183594 M 102.796875 42.050781 C 101.382812 42.050781 100.234375 40.902344 100.234375 39.488281 C 100.234375 38.074219 101.382812 36.925781 102.796875 36.925781 C 104.214844 36.925781 105.363281 38.074219 105.363281 39.488281 C 105.363281 40.902344 104.214844 42.050781 102.796875 42.050781 " fill-opacity="1" fill-rule="nonzero"/><path fill="#e7f7fa" d="M 102.796875 36.929688 C 101.378906 36.929688 100.234375 38.078125 100.234375 39.488281 C 100.234375 40.90625 101.378906 42.050781 102.796875 42.050781 C 104.214844 42.050781 105.359375 40.90625 105.359375 39.488281 C 105.359375 38.078125 104.214844 36.929688 102.796875 36.929688 " fill-opacity="1" fill-rule="nonzero"/><path fill="#9adee8" d="M 248.726562 35.183594 C 245.304688 35.183594 242.53125 37.953125 242.53125 41.375 C 242.53125 44.792969 245.304688 47.5625 248.726562 47.5625 C 252.148438 47.5625 254.921875 44.792969 254.921875 41.375 C 254.921875 37.953125 252.148438 35.183594 248.726562 35.183594 M 248.726562 45.679688 C 246.347656 45.679688 244.417969 43.753906 244.417969 41.375 C 244.417969 38.996094 246.347656 37.066406 248.726562 37.066406 C 251.105469 37.066406 253.035156 38.996094 253.035156 41.375 C 253.035156 43.753906 251.105469 45.679688 248.726562 45.679688 " fill-opacity="1" fill-rule="nonzero"/><path fill="#a6e1de" d="M 248.726562 37.070312 C 246.34375 37.070312 244.417969 38.996094 244.417969 41.375 C 244.417969 43.753906 246.34375 45.683594 248.726562 45.683594 C 251.105469 45.683594 253.035156 43.753906 253.035156 41.375 C 253.035156 38.996094 251.105469 37.070312 248.726562 37.070312 M 248.726562 43.9375 C 247.308594 43.9375 246.160156 42.789062 246.160156 41.375 C 246.160156 39.960938 247.308594 38.8125 248.726562 38.8125 C 250.140625 38.8125 251.289062 39.960938 251.289062 41.375 C 251.289062 42.789062 250.140625 43.9375 248.726562 43.9375 " fill-opacity="1" fill-rule="nonzero"/><path fill="#eef9fd" d="M 248.726562 38.8125 C 247.308594 38.8125 246.164062 39.960938 246.164062 41.375 C 246.164062 42.789062 247.308594 43.9375 248.726562 43.9375 C 250.140625 43.9375 251.289062 42.789062 251.289062 41.375 C 251.289062 39.960938 250.140625 38.8125 248.726562 38.8125 " fill-opacity="1" fill-rule="nonzero"/><path fill="#3891ba" d="M 118.933594 153.148438 C 118.902344 153.386719 118.890625 153.628906 118.890625 153.878906 C 118.890625 157.296875 121.664062 160.070312 125.085938 160.070312 C 127.09375 160.070312 128.875 159.117188 130.007812 157.640625 L 125.945312 158.394531 L 125.617188 158.152344 C 125.445312 158.175781 125.265625 158.183594 125.085938 158.183594 C 122.941406 158.183594 121.160156 156.621094 120.832031 154.566406 L 118.933594 153.148438 " fill-opacity="1" fill-rule="nonzero"/><path fill="#5bb4e0" d="M 125.085938 147.6875 C 121.910156 147.6875 119.292969 150.074219 118.933594 153.148438 L 120.832031 154.566406 C 120.796875 154.34375 120.777344 154.113281 120.777344 153.878906 C 120.777344 151.503906 122.707031 149.574219 125.085938 149.574219 C 127.464844 149.574219 129.394531 151.503906 129.394531 153.878906 C 129.394531 156.078125 127.746094 157.886719 125.617188 158.152344 L 125.945312 158.394531 L 130.007812 157.640625 C 130.808594 156.597656 131.28125 155.292969 131.28125 153.878906 C 131.28125 150.460938 128.507812 147.6875 125.085938 147.6875 " fill-opacity="1" fill-rule="nonzero"/><path fill="#46c2ca" d="M 120.832031 154.566406 C 121.160156 156.621094 122.941406 158.183594 125.085938 158.183594 C 125.265625 158.183594 125.445312 158.175781 125.617188 158.152344 L 120.832031 154.566406 " fill-opacity="1" fill-rule="nonzero"/><path fill="#6bcfe4" d="M 125.085938 149.574219 C 122.707031 149.574219 120.777344 151.503906 120.777344 153.878906 C 120.777344 154.113281 120.796875 154.34375 120.832031 154.566406 L 125.617188 158.152344 C 127.746094 157.886719 129.394531 156.078125 129.394531 153.878906 C 129.394531 151.503906 127.464844 149.574219 125.085938 149.574219 M 125.085938 156.441406 C 123.667969 156.441406 122.519531 155.292969 122.519531 153.878906 C 122.519531 152.464844 123.667969 151.320312 125.085938 151.320312 C 126.5 151.320312 127.648438 152.464844 127.648438 153.878906 C 127.648438 155.292969 126.5 156.441406 125.085938 156.441406 " fill-opacity="1" fill-rule="nonzero"/><path fill="#e2f6fd" d="M 125.085938 151.320312 C 123.667969 151.320312 122.519531 152.464844 122.519531 153.878906 C 122.519531 155.292969 123.667969 156.441406 125.085938 156.441406 C 126.5 156.441406 127.648438 155.292969 127.648438 153.878906 C 127.648438 152.464844 126.5 151.320312 125.085938 151.320312 " fill-opacity="1" fill-rule="nonzero"/><path fill="#73d1de" d="M 111.101562 209.742188 C 107.679688 209.742188 104.90625 212.511719 104.90625 215.933594 C 104.90625 219.351562 107.679688 222.121094 111.101562 222.121094 C 114.523438 222.121094 117.300781 219.351562 117.300781 215.933594 C 117.300781 212.511719 114.523438 209.742188 111.101562 209.742188 M 111.101562 220.238281 C 108.722656 220.238281 106.792969 218.308594 106.792969 215.933594 C 106.792969 213.554688 108.722656 211.625 111.101562 211.625 C 113.480469 211.625 115.410156 213.554688 115.410156 215.933594 C 115.410156 218.308594 113.480469 220.238281 111.101562 220.238281 " fill-opacity="1" fill-rule="nonzero"/><path fill="#83d5d4" d="M 111.101562 211.625 C 108.722656 211.625 106.792969 213.554688 106.792969 215.933594 C 106.792969 218.308594 108.722656 220.238281 111.101562 220.238281 C 113.480469 220.238281 115.410156 218.308594 115.410156 215.933594 C 115.410156 213.554688 113.480469 211.625 111.101562 211.625 M 111.101562 218.492188 C 109.6875 218.492188 108.539062 217.347656 108.539062 215.933594 C 108.539062 214.515625 109.6875 213.371094 111.101562 213.371094 C 112.519531 213.371094 113.664062 214.515625 113.664062 215.933594 C 113.664062 217.347656 112.519531 218.492188 111.101562 218.492188 " fill-opacity="1" fill-rule="nonzero"/><path fill="#e7f7fa" d="M 111.101562 213.371094 C 109.6875 213.371094 108.539062 214.515625 108.539062 215.933594 C 108.539062 217.347656 109.6875 218.492188 111.101562 218.492188 C 112.519531 218.492188 113.664062 217.347656 113.664062 215.933594 C 113.664062 214.515625 112.519531 213.371094 111.101562 213.371094 " fill-opacity="1" fill-rule="nonzero"/><path fill="#73d1de" d="M 265.675781 240.402344 L 260.652344 242.382812 C 260.808594 242.390625 260.960938 242.398438 261.117188 242.398438 C 262.921875 242.398438 264.542969 241.628906 265.675781 240.402344 " fill-opacity="1" fill-rule="nonzero"/><path fill="#5bb4e0" d="M 261.117188 230.019531 C 257.695312 230.019531 254.921875 232.789062 254.921875 236.207031 C 254.921875 239.472656 257.449219 242.144531 260.652344 242.382812 L 265.675781 240.402344 C 266.691406 239.300781 267.3125 237.824219 267.3125 236.207031 C 267.3125 232.789062 264.539062 230.019531 261.117188 230.019531 M 261.117188 240.511719 C 258.738281 240.511719 256.808594 238.585938 256.808594 236.207031 C 256.808594 233.832031 258.738281 231.902344 261.117188 231.902344 C 263.5 231.902344 265.429688 233.832031 265.429688 236.207031 C 265.429688 238.585938 263.5 240.511719 261.117188 240.511719 " fill-opacity="1" fill-rule="nonzero"/><path fill="#6bcfe4" d="M 261.117188 231.902344 C 258.738281 231.902344 256.808594 233.832031 256.808594 236.207031 C 256.808594 238.585938 258.738281 240.511719 261.117188 240.511719 C 263.5 240.511719 265.429688 238.585938 265.429688 236.207031 C 265.429688 233.832031 263.5 231.902344 261.117188 231.902344 M 261.117188 238.769531 C 259.703125 238.769531 258.554688 237.621094 258.554688 236.207031 C 258.554688 234.792969 259.703125 233.644531 261.117188 233.644531 C 262.535156 233.644531 263.683594 234.792969 263.683594 236.207031 C 263.683594 237.621094 262.535156 238.769531 261.117188 238.769531 " fill-opacity="1" fill-rule="nonzero"/><path fill="#e2f6fd" d="M 261.117188 233.644531 C 259.703125 233.644531 258.554688 234.792969 258.554688 236.207031 C 258.554688 237.621094 259.703125 238.769531 261.117188 238.769531 C 262.535156 238.769531 263.683594 237.621094 263.683594 236.207031 C 263.683594 234.792969 262.535156 233.644531 261.117188 233.644531 " fill-opacity="1" fill-rule="nonzero"/><path fill="#5bb4e0" d="M 173.566406 289.773438 C 174.265625 292.425781 176.683594 294.378906 179.558594 294.378906 C 180.199219 294.378906 180.816406 294.28125 181.398438 294.097656 L 178.234375 292.289062 C 177.65625 292.101562 177.132812 291.796875 176.6875 291.402344 L 175.203125 290.550781 L 173.566406 289.773438 " fill-opacity="1" fill-rule="nonzero"/><path fill="#73d1de" d="M 175.203125 290.550781 L 176.6875 291.402344 C 176.589844 291.3125 176.492188 291.21875 176.398438 291.121094 L 175.203125 290.550781 M 178.234375 292.289062 L 181.398438 294.097656 C 181.644531 294.023438 181.882812 293.933594 182.109375 293.832031 L 179.277344 292.484375 C 178.914062 292.460938 178.566406 292.394531 178.234375 292.289062 " fill-opacity="1" fill-rule="nonzero"/><path fill="#9adee8" d="M 173.660156 286.285156 C 173.464844 286.886719 173.359375 287.523438 173.359375 288.1875 C 173.359375 288.738281 173.429688 289.269531 173.566406 289.773438 L 175.203125 290.550781 L 176.398438 291.121094 C 175.683594 290.351562 175.246094 289.320312 175.246094 288.1875 C 175.246094 287.5625 175.378906 286.972656 175.617188 286.433594 L 173.660156 286.285156 M 183.710938 287.050781 C 183.8125 287.414062 183.863281 287.796875 183.863281 288.1875 C 183.863281 290.566406 181.933594 292.492188 179.558594 292.492188 C 179.460938 292.492188 179.371094 292.492188 179.277344 292.484375 L 182.109375 293.832031 C 184.257812 292.859375 185.75 290.699219 185.75 288.1875 C 185.75 287.851562 185.722656 287.519531 185.671875 287.199219 L 183.710938 287.050781 " fill-opacity="1" fill-rule="nonzero"/><path fill="#236c75" d="M 179.558594 282 C 176.796875 282 174.460938 283.800781 173.660156 286.285156 L 175.617188 286.433594 C 176.289062 284.929688 177.800781 283.882812 179.558594 283.882812 C 181.539062 283.882812 183.210938 285.226562 183.710938 287.050781 L 185.671875 287.199219 C 185.195312 284.25 182.640625 282 179.558594 282 " fill-opacity="1" fill-rule="nonzero"/><path fill="#6bcfe4" d="M 176.6875 291.402344 C 177.132812 291.796875 177.65625 292.101562 178.234375 292.289062 L 176.6875 291.402344 " fill-opacity="1" fill-rule="nonzero"/><path fill="#83d5d4" d="M 176.398438 291.121094 C 176.492188 291.21875 176.589844 291.3125 176.6875 291.402344 L 178.234375 292.289062 C 178.566406 292.394531 178.914062 292.460938 179.277344 292.484375 L 176.398438 291.121094 " fill-opacity="1" fill-rule="nonzero"/><path fill="#a6e1de" d="M 175.617188 286.433594 C 175.378906 286.972656 175.246094 287.5625 175.246094 288.1875 C 175.246094 289.320312 175.683594 290.351562 176.398438 291.121094 L 179.277344 292.484375 C 179.371094 292.492188 179.460938 292.492188 179.558594 292.492188 C 181.933594 292.492188 183.863281 290.566406 183.863281 288.1875 C 183.863281 287.796875 183.8125 287.414062 183.710938 287.050781 L 181.773438 286.902344 C 181.992188 287.28125 182.117188 287.722656 182.117188 288.1875 C 182.117188 289.601562 180.972656 290.75 179.558594 290.75 C 178.140625 290.75 176.992188 289.601562 176.992188 288.1875 C 176.992188 287.582031 177.203125 287.019531 177.558594 286.582031 L 175.617188 286.433594 " fill-opacity="1" fill-rule="nonzero"/><path fill="#35ba9d" d="M 179.558594 283.882812 C 177.800781 283.882812 176.289062 284.929688 175.617188 286.433594 L 177.558594 286.582031 C 178.027344 286 178.75 285.625 179.558594 285.625 C 180.503906 285.625 181.328125 286.140625 181.773438 286.902344 L 183.710938 287.050781 C 183.210938 285.226562 181.539062 283.882812 179.558594 283.882812 " fill-opacity="1" fill-rule="nonzero"/><path fill="#eef9fd" d="M 177.558594 286.582031 C 177.203125 287.019531 176.992188 287.582031 176.992188 288.1875 C 176.992188 289.601562 178.140625 290.75 179.558594 290.75 C 180.972656 290.75 182.117188 289.601562 182.117188 288.1875 C 182.117188 287.722656 181.992188 287.28125 181.773438 286.902344 L 177.558594 286.582031 " fill-opacity="1" fill-rule="nonzero"/><path fill="#d7f1e7" d="M 179.558594 285.625 C 178.75 285.625 178.027344 286 177.558594 286.582031 L 181.773438 286.902344 C 181.328125 286.140625 180.503906 285.625 179.558594 285.625 " fill-opacity="1" fill-rule="nonzero"/><path fill="#73d1de" d="M 254.921875 304.449219 C 251.5 304.449219 248.726562 307.222656 248.726562 310.640625 C 248.726562 314.058594 251.5 316.832031 254.921875 316.832031 C 258.34375 316.832031 261.117188 314.058594 261.117188 310.640625 C 261.117188 307.222656 258.34375 304.449219 254.921875 304.449219 M 254.921875 314.945312 C 252.542969 314.945312 250.613281 313.019531 250.613281 310.640625 C 250.613281 308.261719 252.542969 306.335938 254.921875 306.335938 C 257.300781 306.335938 259.234375 308.261719 259.234375 310.640625 C 259.234375 313.019531 257.300781 314.945312 254.921875 314.945312 " fill-opacity="1" fill-rule="nonzero"/><path fill="#83d5d4" d="M 254.921875 306.335938 C 252.542969 306.335938 250.613281 308.261719 250.613281 310.640625 C 250.613281 313.019531 252.542969 314.945312 254.921875 314.945312 C 257.300781 314.945312 259.234375 313.019531 259.234375 310.640625 C 259.234375 308.261719 257.300781 306.335938 254.921875 306.335938 M 254.921875 313.203125 C 253.507812 313.203125 252.359375 312.054688 252.359375 310.640625 C 252.359375 309.222656 253.507812 308.078125 254.921875 308.078125 C 256.335938 308.078125 257.484375 309.222656 257.484375 310.640625 C 257.484375 312.054688 256.335938 313.203125 254.921875 313.203125 " fill-opacity="1" fill-rule="nonzero"/><path fill="#e7f7fa" d="M 254.921875 308.078125 C 253.507812 308.078125 252.359375 309.222656 252.359375 310.640625 C 252.359375 312.054688 253.507812 313.203125 254.921875 313.203125 C 256.335938 313.203125 257.484375 312.054688 257.484375 310.640625 C 257.484375 309.222656 256.335938 308.078125 254.921875 308.078125 " fill-opacity="1" fill-rule="nonzero"/><path fill="#3891ba" d="M 191.949219 351.011719 C 188.527344 351.011719 185.75 353.78125 185.75 357.203125 C 185.75 360.621094 188.527344 363.390625 191.949219 363.390625 C 195.371094 363.390625 198.144531 360.621094 198.144531 357.203125 C 198.144531 353.78125 195.371094 351.011719 191.949219 351.011719 M 191.949219 361.507812 C 189.566406 361.507812 187.640625 359.578125 187.640625 357.203125 C 187.640625 354.824219 189.566406 352.894531 191.949219 352.894531 C 194.328125 352.894531 196.257812 354.824219 196.257812 357.203125 C 196.257812 359.578125 194.328125 361.507812 191.949219 361.507812 " fill-opacity="1" fill-rule="nonzero"/><path fill="#46c2ca" d="M 191.949219 352.894531 C 189.566406 352.894531 187.640625 354.824219 187.640625 357.203125 C 187.640625 359.578125 189.566406 361.507812 191.949219 361.507812 C 194.328125 361.507812 196.257812 359.578125 196.257812 357.203125 C 196.257812 354.824219 194.328125 352.894531 191.949219 352.894531 M 191.949219 359.761719 C 190.535156 359.761719 189.386719 358.617188 189.386719 357.203125 C 189.386719 355.789062 190.535156 354.640625 191.949219 354.640625 C 193.363281 354.640625 194.511719 355.789062 194.511719 357.203125 C 194.511719 358.617188 193.363281 359.761719 191.949219 359.761719 " fill-opacity="1" fill-rule="nonzero"/><path fill="#dbf3f5" d="M 191.949219 354.640625 C 190.535156 354.640625 189.386719 355.789062 189.386719 357.203125 C 189.386719 358.617188 190.535156 359.761719 191.949219 359.761719 C 193.363281 359.761719 194.511719 358.617188 194.511719 357.203125 C 194.511719 355.789062 193.363281 354.640625 191.949219 354.640625 " fill-opacity="1" fill-rule="nonzero"/><path fill="#5bb4e0" d="M 119.867188 290.75 C 116.445312 290.75 113.667969 293.519531 113.667969 296.941406 C 113.667969 300.359375 116.445312 303.132812 119.867188 303.132812 C 123.289062 303.132812 126.0625 300.359375 126.0625 296.941406 C 126.0625 293.519531 123.289062 290.75 119.867188 290.75 M 119.867188 301.246094 C 117.484375 301.246094 115.554688 299.320312 115.554688 296.941406 C 115.554688 294.5625 117.484375 292.636719 119.867188 292.636719 C 122.246094 292.636719 124.175781 294.5625 124.175781 296.941406 C 124.175781 299.320312 122.246094 301.246094 119.867188 301.246094 " fill-opacity="1" fill-rule="nonzero"/><path fill="#6bcfe4" d="M 119.867188 292.636719 C 117.484375 292.636719 115.554688 294.5625 115.554688 296.941406 C 115.554688 299.320312 117.484375 301.246094 119.867188 301.246094 C 122.246094 301.246094 124.175781 299.320312 124.175781 296.941406 C 124.175781 294.5625 122.246094 292.636719 119.867188 292.636719 M 119.867188 299.503906 C 118.449219 299.503906 117.300781 298.355469 117.300781 296.941406 C 117.300781 295.527344 118.449219 294.378906 119.867188 294.378906 C 121.28125 294.378906 122.429688 295.527344 122.429688 296.941406 C 122.429688 298.355469 121.28125 299.503906 119.867188 299.503906 " fill-opacity="1" fill-rule="nonzero"/><path fill="#e2f6fd" d="M 119.867188 294.378906 C 118.449219 294.378906 117.300781 295.527344 117.300781 296.941406 C 117.300781 298.355469 118.449219 299.503906 119.867188 299.503906 C 121.28125 299.503906 122.429688 298.355469 122.429688 296.941406 C 122.429688 295.527344 121.28125 294.378906 119.867188 294.378906 " fill-opacity="1" fill-rule="nonzero"/><path fill="#3891ba" d="M 283.5625 118.128906 C 280.140625 118.128906 277.367188 120.898438 277.367188 124.316406 C 277.367188 127.738281 280.140625 130.507812 283.5625 130.507812 C 286.984375 130.507812 289.761719 127.738281 289.761719 124.316406 C 289.761719 120.898438 286.984375 118.128906 283.5625 118.128906 M 283.5625 128.621094 C 281.183594 128.621094 279.253906 126.695312 279.253906 124.316406 C 279.253906 121.941406 281.183594 120.011719 283.5625 120.011719 C 285.945312 120.011719 287.875 121.941406 287.875 124.316406 C 287.875 126.695312 285.945312 128.621094 283.5625 128.621094 " fill-opacity="1" fill-rule="nonzero"/><path fill="#46c2ca" d="M 283.566406 120.011719 C 281.183594 120.011719 279.253906 121.9375 279.253906 124.320312 C 279.253906 126.695312 281.183594 128.625 283.566406 128.625 C 285.945312 128.625 287.875 126.695312 287.875 124.320312 C 287.875 121.9375 285.945312 120.011719 283.566406 120.011719 M 283.566406 126.878906 C 282.148438 126.878906 281 125.734375 281 124.320312 C 281 122.902344 282.148438 121.753906 283.566406 121.753906 C 284.980469 121.753906 286.128906 122.902344 286.128906 124.320312 C 286.128906 125.734375 284.980469 126.878906 283.566406 126.878906 " fill-opacity="1" fill-rule="nonzero"/><path fill="#dbf3f5" d="M 283.5625 121.757812 C 282.144531 121.757812 281 122.902344 281 124.320312 C 281 125.734375 282.144531 126.878906 283.5625 126.878906 C 284.976562 126.878906 286.125 125.734375 286.125 124.320312 C 286.125 122.902344 284.976562 121.757812 283.5625 121.757812 " fill-opacity="1" fill-rule="nonzero"/><path fill="#5bb4e0" d="M 218.535156 174.371094 C 215.117188 174.371094 212.339844 177.140625 212.339844 180.558594 C 212.339844 183.980469 215.117188 186.75 218.535156 186.75 C 220.453125 186.75 222.164062 185.882812 223.300781 184.519531 L 222.382812 182.503906 C 221.671875 183.90625 220.21875 184.867188 218.535156 184.867188 C 216.160156 184.867188 214.226562 182.9375 214.226562 180.558594 C 214.226562 178.183594 216.160156 176.253906 218.535156 176.253906 C 218.910156 176.253906 219.273438 176.300781 219.621094 176.390625 L 218.707031 174.371094 C 218.652344 174.371094 218.59375 174.371094 218.535156 174.371094 " fill-opacity="1" fill-rule="nonzero"/><path fill="#9adee8" d="M 218.707031 174.371094 L 219.621094 176.390625 C 221.476562 176.871094 222.847656 178.554688 222.847656 180.558594 C 222.847656 181.261719 222.683594 181.917969 222.382812 182.503906 L 223.300781 184.519531 C 224.195312 183.449219 224.734375 182.066406 224.734375 180.558594 C 224.734375 177.199219 222.050781 174.460938 218.707031 174.371094 " fill-opacity="1" fill-rule="nonzero"/><path fill="#6bcfe4" d="M 218.535156 176.253906 C 216.160156 176.253906 214.226562 178.183594 214.226562 180.558594 C 214.226562 182.9375 216.160156 184.867188 218.535156 184.867188 C 220.21875 184.867188 221.671875 183.90625 222.382812 182.503906 L 219.621094 176.390625 C 219.273438 176.300781 218.910156 176.253906 218.535156 176.253906 M 218.535156 183.121094 C 217.121094 183.121094 215.972656 181.972656 215.972656 180.558594 C 215.972656 179.148438 217.121094 178 218.535156 178 C 219.953125 178 221.101562 179.148438 221.101562 180.558594 C 221.101562 181.972656 219.953125 183.121094 218.535156 183.121094 " fill-opacity="1" fill-rule="nonzero"/><path fill="#a6e1de" d="M 219.621094 176.390625 L 222.382812 182.503906 C 222.683594 181.917969 222.847656 181.261719 222.847656 180.558594 C 222.847656 178.554688 221.476562 176.871094 219.621094 176.390625 " fill-opacity="1" fill-rule="nonzero"/><path fill="#e2f6fd" d="M 218.535156 178 C 217.121094 178 215.972656 179.148438 215.972656 180.558594 C 215.972656 181.972656 217.121094 183.121094 218.535156 183.121094 C 219.953125 183.121094 221.101562 181.972656 221.101562 180.558594 C 221.101562 179.148438 219.953125 178 218.535156 178 " fill-opacity="1" fill-rule="nonzero"/><path fill="#9adee8" d="M 161.683594 55.753906 C 158.261719 55.753906 155.488281 58.523438 155.488281 61.941406 C 155.488281 65.363281 158.261719 68.136719 161.683594 68.136719 C 165.105469 68.136719 167.882812 65.363281 167.882812 61.941406 C 167.882812 58.523438 165.105469 55.753906 161.683594 55.753906 M 161.683594 66.25 C 159.304688 66.25 157.375 64.324219 157.375 61.941406 C 157.375 59.566406 159.304688 57.640625 161.683594 57.640625 C 164.066406 57.640625 165.992188 59.566406 165.992188 61.941406 C 165.992188 64.324219 164.066406 66.25 161.683594 66.25 " fill-opacity="1" fill-rule="nonzero"/><path fill="#a6e1de" d="M 161.6875 57.636719 C 159.304688 57.636719 157.375 59.566406 157.375 61.941406 C 157.375 64.320312 159.304688 66.246094 161.6875 66.246094 C 164.066406 66.246094 165.992188 64.320312 165.992188 61.941406 C 165.992188 59.566406 164.066406 57.636719 161.6875 57.636719 M 161.6875 64.503906 C 160.269531 64.503906 159.121094 63.355469 159.121094 61.941406 C 159.121094 60.527344 160.269531 59.382812 161.6875 59.382812 C 163.101562 59.382812 164.246094 60.527344 164.246094 61.941406 C 164.246094 63.355469 163.101562 64.503906 161.6875 64.503906 " fill-opacity="1" fill-rule="nonzero"/><path fill="#eef9fd" d="M 161.6875 59.378906 C 160.269531 59.378906 159.121094 60.527344 159.121094 61.941406 C 159.121094 63.355469 160.269531 64.503906 161.6875 64.503906 C 163.101562 64.503906 164.25 63.355469 164.25 61.941406 C 164.25 60.527344 163.101562 59.378906 161.6875 59.378906 " fill-opacity="1" fill-rule="nonzero"/><path fill="#9adee8" d="M 202.148438 111.9375 C 198.726562 111.9375 195.953125 114.707031 195.953125 118.128906 C 195.953125 118.78125 196.054688 119.414062 196.242188 120.003906 L 198.089844 119.570312 C 197.929688 119.121094 197.839844 118.632812 197.839844 118.128906 C 197.839844 115.75 199.769531 113.820312 202.148438 113.820312 C 204.359375 113.820312 206.179688 115.480469 206.429688 117.621094 L 208.277344 117.191406 C 207.824219 114.21875 205.253906 111.9375 202.148438 111.9375 " fill-opacity="1" fill-rule="nonzero"/><path fill="#9adee8" d="M 208.277344 117.191406 L 206.429688 117.621094 C 206.449219 117.789062 206.457031 117.957031 206.457031 118.128906 C 206.457031 120.503906 204.527344 122.433594 202.148438 122.433594 C 200.277344 122.433594 198.683594 121.238281 198.089844 119.570312 L 196.242188 120.003906 C 197.039062 122.503906 199.382812 124.316406 202.148438 124.316406 C 205.570312 124.316406 208.34375 121.546875 208.34375 118.128906 C 208.34375 117.808594 208.324219 117.496094 208.277344 117.191406 " fill-opacity="1" fill-rule="nonzero"/><path fill="#a6e1de" d="M 202.148438 113.820312 C 199.769531 113.820312 197.839844 115.75 197.839844 118.128906 C 197.839844 118.632812 197.929688 119.121094 198.089844 119.570312 L 199.804688 119.171875 C 199.664062 118.851562 199.585938 118.496094 199.585938 118.128906 C 199.585938 116.710938 200.734375 115.566406 202.148438 115.566406 C 203.53125 115.566406 204.65625 116.65625 204.710938 118.023438 L 206.429688 117.621094 C 206.179688 115.480469 204.359375 113.820312 202.148438 113.820312 " fill-opacity="1" fill-rule="nonzero"/><path fill="#a6e1de" d="M 206.429688 117.621094 L 204.710938 118.023438 C 204.714844 118.058594 204.714844 118.09375 204.714844 118.128906 C 204.714844 119.542969 203.566406 120.6875 202.148438 120.6875 C 201.105469 120.6875 200.207031 120.0625 199.804688 119.171875 L 198.089844 119.570312 C 198.683594 121.238281 200.277344 122.433594 202.148438 122.433594 C 204.527344 122.433594 206.457031 120.503906 206.457031 118.128906 C 206.457031 117.957031 206.449219 117.789062 206.429688 117.621094 " fill-opacity="1" fill-rule="nonzero"/><path fill="#eef9fd" d="M 202.148438 115.566406 C 200.734375 115.566406 199.585938 116.710938 199.585938 118.128906 C 199.585938 118.496094 199.664062 118.851562 199.804688 119.171875 L 204.710938 118.023438 C 204.65625 116.65625 203.53125 115.566406 202.148438 115.566406 " fill-opacity="1" fill-rule="nonzero"/><path fill="#eef9fd" d="M 204.710938 118.023438 L 199.804688 119.171875 C 200.207031 120.0625 201.105469 120.6875 202.148438 120.6875 C 203.566406 120.6875 204.714844 119.542969 204.714844 118.128906 C 204.714844 118.09375 204.714844 118.058594 204.710938 118.023438 " fill-opacity="1" fill-rule="nonzero"/><path fill="#ffffff" d="M 102.625 39.9375 L 161.648438 62.441406 L 247.726562 42.101562 L 201.335938 118.546875 L 282.988281 124.753906 L 260.6875 235.914062 L 178.417969 288.347656 L 253.882812 310.828125 L 191.964844 357.804688 L 120.191406 296.507812 L 111.585938 215.960938 L 125.550781 153.984375 L 124.617188 153.777344 L 110.617188 215.902344 L 119.28125 296.984375 L 191.929688 359.03125 L 255.960938 310.449219 L 180.695312 288.03125 L 261.542969 236.503906 L 284.136719 123.886719 L 202.960938 117.710938 L 249.726562 40.648438 L 161.71875 61.445312 L 102.96875 39.046875 L 102.625 39.9375 " fill-opacity="1" fill-rule="nonzero"/><path fill="#ffffff" d="M 161.296875 62.222656 L 201.757812 118.40625 L 202.535156 117.847656 L 162.070312 61.664062 " fill-opacity="1" fill-rule="nonzero"/><path fill="#ffffff" d="M 218.378906 180.109375 L 113.238281 216.601562 L 113.554688 217.503906 L 218.695312 181.011719 " fill-opacity="1" fill-rule="nonzero"/><path fill="#ffffff" d="M 260.640625 236.167969 L 254.445312 310.601562 L 255.398438 310.679688 L 261.59375 236.246094 " fill-opacity="1" fill-rule="nonzero"/><path fill="#ffffff" d="M 179.085938 289.273438 L 191.476562 357.285156 L 192.417969 357.113281 L 180.027344 289.101562 " fill-opacity="1" fill-rule="nonzero"/><path fill="#ffffff" d="M 111.820312 216.257812 L 179.207031 288.511719 L 179.90625 287.863281 L 112.519531 215.605469 " fill-opacity="1" fill-rule="nonzero"/><path fill="#ffffff" d="M 219.054688 181.273438 L 179.109375 288.023438 L 180.003906 288.355469 L 219.949219 181.605469 " fill-opacity="1" fill-rule="nonzero"/><path fill="#ffffff" d="M 261.5 235.917969 L 218.917969 180.273438 L 218.160156 180.851562 L 260.738281 236.496094 " fill-opacity="1" fill-rule="nonzero"/><path fill="#ffffff" d="M 201.949219 117.695312 L 124.882812 153.445312 L 125.289062 154.3125 L 202.351562 118.558594 " fill-opacity="1" fill-rule="nonzero"/><path fill="#ffffff" d="M 283.25 123.960938 L 219.1875 180.203125 L 219.816406 180.917969 L 283.878906 124.675781 " fill-opacity="1" fill-rule="nonzero"/><path fill="#ffffff" d="M 248.285156 41.558594 L 283.125 124.503906 L 284.003906 124.132812 L 249.167969 41.1875 " fill-opacity="1" fill-rule="nonzero"/><path fill="#ffffff" d="M 160.28125 62.308594 L 125.570312 153.976562 L 126.464844 154.3125 L 161.175781 62.644531 " fill-opacity="1" fill-rule="nonzero"/><path fill="#ffffff" d="M 102.328125 39.585938 L 125.550781 154.242188 L 126.488281 154.050781 L 103.265625 39.394531 " fill-opacity="1" fill-rule="nonzero"/><path fill="#ffffff" d="M 219.632812 180.101562 L 126.148438 153.6875 L 125.886719 154.605469 L 219.371094 181.019531 " fill-opacity="1" fill-rule="nonzero"/><path fill="#ffffff" d="M 201.6875 118.25 L 218.078125 180.683594 L 219 180.4375 L 202.613281 118.007812 " fill-opacity="1" fill-rule="nonzero"/><path fill="#ffffff" d="M 179.492188 288.714844 L 120.714844 296.46875 L 120.839844 297.414062 L 179.617188 289.660156 " fill-opacity="1" fill-rule="nonzero"/></svg>