<svg xmlns="http://www.w3.org/2000/svg" xmlns:xlink="http://www.w3.org/1999/xlink" width="500" zoomAndPan="magnify" viewBox="0 0 375 93.749996" height="125" preserveAspectRatio="xMidYMid meet" version="1.0"><defs><g/></defs><g fill="#ffffff" fill-opacity="1"><g transform="translate(24.456724, 74.141701)"><g><path d="M 4.953125 -50.015625 L 16.296875 -51.84375 L 16.296875 -40.046875 L 29.921875 -40.046875 L 29.921875 -30.609375 L 16.296875 -30.609375 L 16.296875 -16.515625 C 16.296875 -14.128906 16.710938 -12.222656 17.546875 -10.796875 C 18.378906 -9.378906 20.066406 -8.671875 22.609375 -8.671875 C 23.828125 -8.671875 25.082031 -8.785156 26.375 -9.015625 C 27.664062 -9.242188 28.847656 -9.5625 29.921875 -9.96875 L 31.515625 -1.140625 C 30.140625 -0.578125 28.613281 -0.0976562 26.9375 0.296875 C 25.269531 0.703125 23.21875 0.90625 20.78125 0.90625 C 17.6875 0.90625 15.125 0.488281 13.09375 -0.34375 C 11.0625 -1.175781 9.4375 -2.34375 8.21875 -3.84375 C 7 -5.34375 6.148438 -7.15625 5.671875 -9.28125 C 5.191406 -11.414062 4.953125 -13.773438 4.953125 -16.359375 Z M 4.953125 -50.015625 "/></g></g></g><g fill="#ffffff" fill-opacity="1"><g transform="translate(59.399075, 74.141701)"><g><path d="M 3.421875 -19.71875 C 3.421875 -23.269531 3.96875 -26.375 5.0625 -29.03125 C 6.15625 -31.695312 7.585938 -33.914062 9.359375 -35.6875 C 11.140625 -37.46875 13.179688 -38.816406 15.484375 -39.734375 C 17.796875 -40.648438 20.171875 -41.109375 22.609375 -41.109375 C 28.296875 -41.109375 32.785156 -39.367188 36.078125 -35.890625 C 39.378906 -32.410156 41.03125 -27.296875 41.03125 -20.546875 C 41.03125 -19.890625 41.003906 -19.164062 40.953125 -18.375 C 40.898438 -17.59375 40.847656 -16.898438 40.796875 -16.296875 L 15.078125 -16.296875 C 15.328125 -13.953125 16.414062 -12.09375 18.34375 -10.71875 C 20.269531 -9.351562 22.859375 -8.671875 26.109375 -8.671875 C 28.191406 -8.671875 30.234375 -8.859375 32.234375 -9.234375 C 34.242188 -9.617188 35.882812 -10.09375 37.15625 -10.65625 L 38.671875 -1.453125 C 38.066406 -1.140625 37.253906 -0.832031 36.234375 -0.53125 C 35.222656 -0.226562 34.09375 0.0351562 32.84375 0.265625 C 31.601562 0.492188 30.269531 0.679688 28.84375 0.828125 C 27.425781 0.984375 26.007812 1.0625 24.59375 1.0625 C 20.988281 1.0625 17.851562 0.53125 15.1875 -0.53125 C 12.519531 -1.59375 10.3125 -3.050781 8.5625 -4.90625 C 6.8125 -6.757812 5.515625 -8.953125 4.671875 -11.484375 C 3.835938 -14.023438 3.421875 -16.769531 3.421875 -19.71875 Z M 30.0625 -24.0625 C 30.019531 -25.019531 29.859375 -25.957031 29.578125 -26.875 C 29.296875 -27.789062 28.863281 -28.601562 28.28125 -29.3125 C 27.695312 -30.019531 26.957031 -30.601562 26.0625 -31.0625 C 25.175781 -31.519531 24.078125 -31.75 22.765625 -31.75 C 21.492188 -31.75 20.398438 -31.53125 19.484375 -31.09375 C 18.578125 -30.664062 17.816406 -30.09375 17.203125 -29.375 C 16.597656 -28.664062 16.128906 -27.84375 15.796875 -26.90625 C 15.460938 -25.96875 15.222656 -25.019531 15.078125 -24.0625 Z M 30.0625 -24.0625 "/></g></g></g><g fill="#ffffff" fill-opacity="1"><g transform="translate(104.999196, 74.141701)"><g><path d="M 3.421875 -20.015625 C 3.421875 -22.910156 3.890625 -25.640625 4.828125 -28.203125 C 5.773438 -30.765625 7.132812 -33 8.90625 -34.90625 C 10.6875 -36.8125 12.84375 -38.320312 15.375 -39.4375 C 17.914062 -40.550781 20.8125 -41.109375 24.0625 -41.109375 C 26.1875 -41.109375 28.132812 -40.914062 29.90625 -40.53125 C 31.6875 -40.15625 33.414062 -39.613281 35.09375 -38.90625 L 32.734375 -29.84375 C 31.671875 -30.25 30.503906 -30.601562 29.234375 -30.90625 C 27.960938 -31.207031 26.539062 -31.359375 24.96875 -31.359375 C 21.613281 -31.359375 19.113281 -30.316406 17.46875 -28.234375 C 15.820312 -26.160156 15 -23.421875 15 -20.015625 C 15 -16.410156 15.769531 -13.617188 17.3125 -11.640625 C 18.863281 -9.660156 21.566406 -8.671875 25.421875 -8.671875 C 26.796875 -8.671875 28.269531 -8.796875 29.84375 -9.046875 C 31.414062 -9.304688 32.863281 -9.71875 34.1875 -10.28125 L 35.78125 -0.984375 C 34.457031 -0.429688 32.804688 0.046875 30.828125 0.453125 C 28.847656 0.859375 26.664062 1.0625 24.28125 1.0625 C 20.625 1.0625 17.476562 0.519531 14.84375 -0.5625 C 12.207031 -1.65625 10.035156 -3.140625 8.328125 -5.015625 C 6.628906 -6.898438 5.382812 -9.125 4.59375 -11.6875 C 3.8125 -14.25 3.421875 -17.023438 3.421875 -20.015625 Z M 3.421875 -20.015625 "/></g></g></g><g fill="#ffffff" fill-opacity="1"><g transform="translate(144.204653, 74.141701)"><g><path d="M 5.328125 0 L 5.328125 -57.25 L 16.671875 -59.078125 L 16.671875 -39.890625 C 17.429688 -40.140625 18.40625 -40.378906 19.59375 -40.609375 C 20.789062 -40.835938 21.945312 -40.953125 23.0625 -40.953125 C 26.3125 -40.953125 29.015625 -40.507812 31.171875 -39.625 C 33.328125 -38.738281 35.050781 -37.484375 36.34375 -35.859375 C 37.644531 -34.234375 38.5625 -32.300781 39.09375 -30.0625 C 39.625 -27.832031 39.890625 -25.347656 39.890625 -22.609375 L 39.890625 0 L 28.546875 0 L 28.546875 -21.234375 C 28.546875 -24.890625 28.078125 -27.476562 27.140625 -29 C 26.203125 -30.519531 24.460938 -31.28125 21.921875 -31.28125 C 20.910156 -31.28125 19.957031 -31.191406 19.0625 -31.015625 C 18.175781 -30.835938 17.378906 -30.648438 16.671875 -30.453125 L 16.671875 0 Z M 5.328125 0 "/></g></g></g><g fill="#42bfd0" fill-opacity="1"><g transform="translate(190.196111, 74.141701)"><g><path d="M 16.671875 0 L 5.328125 0 L 5.328125 -40.046875 L 16.671875 -40.046875 Z M 17.734375 -51.609375 C 17.734375 -49.523438 17.0625 -47.882812 15.71875 -46.6875 C 14.375 -45.5 12.789062 -44.90625 10.96875 -44.90625 C 9.132812 -44.90625 7.546875 -45.5 6.203125 -46.6875 C 4.859375 -47.882812 4.1875 -49.523438 4.1875 -51.609375 C 4.1875 -53.691406 4.859375 -55.328125 6.203125 -56.515625 C 7.546875 -57.710938 9.132812 -58.3125 10.96875 -58.3125 C 12.789062 -58.3125 14.375 -57.710938 15.71875 -56.515625 C 17.0625 -55.328125 17.734375 -53.691406 17.734375 -51.609375 Z M 17.734375 -51.609375 "/></g></g></g><g fill="#42bfd0" fill-opacity="1"><g transform="translate(213.338792, 74.141701)"><g><path d="M 15 -20.328125 C 15 -16.828125 15.785156 -14.007812 17.359375 -11.875 C 18.929688 -9.738281 21.265625 -8.671875 24.359375 -8.671875 C 25.367188 -8.671875 26.304688 -8.707031 27.171875 -8.78125 C 28.035156 -8.863281 28.75 -8.957031 29.3125 -9.0625 L 29.3125 -29.6875 C 28.601562 -30.144531 27.675781 -30.523438 26.53125 -30.828125 C 25.382812 -31.128906 24.226562 -31.28125 23.0625 -31.28125 C 17.6875 -31.28125 15 -27.628906 15 -20.328125 Z M 40.65625 -1.296875 C 39.632812 -0.992188 38.460938 -0.703125 37.140625 -0.421875 C 35.828125 -0.140625 34.445312 0.0976562 33 0.296875 C 31.550781 0.503906 30.078125 0.671875 28.578125 0.796875 C 27.085938 0.921875 25.65625 0.984375 24.28125 0.984375 C 20.976562 0.984375 18.035156 0.503906 15.453125 -0.453125 C 12.867188 -1.421875 10.6875 -2.804688 8.90625 -4.609375 C 7.132812 -6.410156 5.773438 -8.59375 4.828125 -11.15625 C 3.890625 -13.71875 3.421875 -16.597656 3.421875 -19.796875 C 3.421875 -23.046875 3.828125 -25.972656 4.640625 -28.578125 C 5.453125 -31.191406 6.617188 -33.410156 8.140625 -35.234375 C 9.660156 -37.066406 11.523438 -38.460938 13.734375 -39.421875 C 15.941406 -40.390625 18.46875 -40.875 21.3125 -40.875 C 22.882812 -40.875 24.289062 -40.722656 25.53125 -40.421875 C 26.78125 -40.117188 28.039062 -39.6875 29.3125 -39.125 L 29.3125 -57.25 L 40.65625 -59.078125 Z M 40.65625 -1.296875 "/></g></g></g><g fill="#42bfd0" fill-opacity="1"><g transform="translate(260.461455, 74.141701)"><g><path d="M 3.421875 -19.71875 C 3.421875 -23.269531 3.96875 -26.375 5.0625 -29.03125 C 6.15625 -31.695312 7.585938 -33.914062 9.359375 -35.6875 C 11.140625 -37.46875 13.179688 -38.816406 15.484375 -39.734375 C 17.796875 -40.648438 20.171875 -41.109375 22.609375 -41.109375 C 28.296875 -41.109375 32.785156 -39.367188 36.078125 -35.890625 C 39.378906 -32.410156 41.03125 -27.296875 41.03125 -20.546875 C 41.03125 -19.890625 41.003906 -19.164062 40.953125 -18.375 C 40.898438 -17.59375 40.847656 -16.898438 40.796875 -16.296875 L 15.078125 -16.296875 C 15.328125 -13.953125 16.414062 -12.09375 18.34375 -10.71875 C 20.269531 -9.351562 22.859375 -8.671875 26.109375 -8.671875 C 28.191406 -8.671875 30.234375 -8.859375 32.234375 -9.234375 C 34.242188 -9.617188 35.882812 -10.09375 37.15625 -10.65625 L 38.671875 -1.453125 C 38.066406 -1.140625 37.253906 -0.832031 36.234375 -0.53125 C 35.222656 -0.226562 34.09375 0.0351562 32.84375 0.265625 C 31.601562 0.492188 30.269531 0.679688 28.84375 0.828125 C 27.425781 0.984375 26.007812 1.0625 24.59375 1.0625 C 20.988281 1.0625 17.851562 0.53125 15.1875 -0.53125 C 12.519531 -1.59375 10.3125 -3.050781 8.5625 -4.90625 C 6.8125 -6.757812 5.515625 -8.953125 4.671875 -11.484375 C 3.835938 -14.023438 3.421875 -16.769531 3.421875 -19.71875 Z M 30.0625 -24.0625 C 30.019531 -25.019531 29.859375 -25.957031 29.578125 -26.875 C 29.296875 -27.789062 28.863281 -28.601562 28.28125 -29.3125 C 27.695312 -30.019531 26.957031 -30.601562 26.0625 -31.0625 C 25.175781 -31.519531 24.078125 -31.75 22.765625 -31.75 C 21.492188 -31.75 20.398438 -31.53125 19.484375 -31.09375 C 18.578125 -30.664062 17.816406 -30.09375 17.203125 -29.375 C 16.597656 -28.664062 16.128906 -27.84375 15.796875 -26.90625 C 15.460938 -25.96875 15.222656 -25.019531 15.078125 -24.0625 Z M 30.0625 -24.0625 "/></g></g></g><g fill="#42bfd0" fill-opacity="1"><g transform="translate(306.061575, 74.141701)"><g><path d="M 5.328125 -38.671875 C 7.253906 -39.234375 9.738281 -39.753906 12.78125 -40.234375 C 15.832031 -40.710938 19.03125 -40.953125 22.375 -40.953125 C 25.78125 -40.953125 28.609375 -40.507812 30.859375 -39.625 C 33.117188 -38.738281 34.910156 -37.484375 36.234375 -35.859375 C 37.554688 -34.234375 38.492188 -32.300781 39.046875 -30.0625 C 39.609375 -27.832031 39.890625 -25.347656 39.890625 -22.609375 L 39.890625 0 L 28.546875 0 L 28.546875 -21.234375 C 28.546875 -24.890625 28.0625 -27.476562 27.09375 -29 C 26.132812 -30.519531 24.335938 -31.28125 21.703125 -31.28125 C 20.890625 -31.28125 20.023438 -31.242188 19.109375 -31.171875 C 18.191406 -31.097656 17.378906 -31.007812 16.671875 -30.90625 L 16.671875 0 L 5.328125 0 Z M 5.328125 -38.671875 "/></g></g></g></svg>