<svg xmlns="http://www.w3.org/2000/svg" width="500" viewBox="0 0 375 375" height="500" version="1.0"><path d="M131.52 180.585c0 .605-.04 1.246-.11 1.922h-15.25c.114 1.886.754 3.355 1.922 4.406 1.176 1.055 2.602 1.578 4.282 1.578 1.363 0 2.503-.316 3.421-.953a4.966 4.966 0 0 0 1.938-2.563h3.422c-.512 1.836-1.54 3.329-3.078 4.485-1.532 1.148-3.434 1.718-5.703 1.718-1.813 0-3.434-.406-4.86-1.218-1.43-.813-2.547-1.969-3.36-3.469-.811-1.5-1.218-3.234-1.218-5.203 0-1.969.39-3.695 1.172-5.188.788-1.488 1.898-2.632 3.328-3.437 1.438-.8 3.082-1.203 4.938-1.203 1.812 0 3.41.398 4.796 1.187a8.19 8.19 0 0 1 3.22 3.266c.757 1.375 1.14 2.933 1.14 4.672Zm-3.266-.656c0-1.208-.273-2.243-.812-3.11a5.146 5.146 0 0 0-2.172-1.984c-.918-.457-1.934-.688-3.047-.688-1.606 0-2.969.512-4.094 1.532-1.125 1.023-1.773 2.437-1.937 4.25Zm6.258 1.359c0-1.969.39-3.692 1.172-5.172.789-1.477 1.89-2.625 3.297-3.438 1.406-.812 3.015-1.218 4.828-1.218 2.344 0 4.273.574 5.797 1.718 1.52 1.137 2.523 2.715 3.015 4.735h-3.422c-.324-1.164-.953-2.082-1.89-2.75-.938-.676-2.106-1.016-3.5-1.016-1.813 0-3.277.625-4.39 1.875-1.118 1.242-1.673 2.996-1.673 5.266 0 2.305.555 4.078 1.672 5.328 1.114 1.25 2.578 1.875 4.39 1.875 1.395 0 2.556-.32 3.485-.969.926-.644 1.563-1.57 1.906-2.781h3.422c-.511 1.95-1.53 3.512-3.062 4.688-1.531 1.167-3.45 1.75-5.75 1.75-1.813 0-3.422-.407-4.828-1.22-1.407-.812-2.508-1.956-3.297-3.437-.782-1.488-1.172-3.234-1.172-5.234Zm31.79-9.86c1.438 0 2.735.31 3.89.922 1.165.618 2.079 1.543 2.735 2.782.664 1.23 1 2.726 1 4.484v11.25h-3.14v-10.797c0-1.906-.477-3.363-1.422-4.375-.95-1.008-2.25-1.515-3.906-1.515-1.668 0-2.997.527-3.985 1.578-.992 1.043-1.484 2.562-1.484 4.562v10.547h-3.157V165.1h3.157v9.391c.633-.969 1.5-1.719 2.593-2.25 1.102-.54 2.344-.813 3.72-.813Zm0 0" fill="#0cc0df"/><g transform="translate(176.43 190.866)" fill="#0cc0df"/><g transform="translate(185.726 190.866)" fill="#0cc0df"/><path d="M196.528 181.256c0-1.945.39-3.66 1.172-5.14.789-1.477 1.879-2.625 3.265-3.438 1.383-.812 2.938-1.218 4.657-1.218 1.476 0 2.851.343 4.125 1.031 1.281.688 2.258 1.59 2.937 2.703V165.1h3.203v25.766h-3.203v-3.594c-.625 1.149-1.554 2.086-2.781 2.813-1.23.73-2.672 1.094-4.328 1.094-1.688 0-3.227-.415-4.61-1.25-1.386-.833-2.476-2.004-3.265-3.516-.782-1.508-1.172-3.227-1.172-5.157Zm16.156.032c0-1.438-.293-2.688-.875-3.75-.574-1.07-1.355-1.89-2.343-2.453a6.408 6.408 0 0 0-3.25-.86c-1.188 0-2.274.282-3.25.844-.97.555-1.747 1.367-2.329 2.438-.586 1.062-.875 2.312-.875 3.75 0 1.46.29 2.73.875 3.812.582 1.086 1.36 1.914 2.329 2.484.976.563 2.062.844 3.25.844a6.474 6.474 0 0 0 3.25-.844c.988-.57 1.769-1.398 2.343-2.484.582-1.082.875-2.344.875-3.781Zm25.974-.703c0 .605-.04 1.246-.11 1.922h-15.25c.114 1.886.754 3.355 1.922 4.406 1.176 1.055 2.602 1.578 4.282 1.578 1.363 0 2.503-.316 3.421-.953a4.966 4.966 0 0 0 1.938-2.563h3.422c-.512 1.836-1.54 3.329-3.078 4.485-1.532 1.148-3.434 1.718-5.703 1.718-1.813 0-3.434-.406-4.86-1.218-1.43-.813-2.547-1.969-3.36-3.469-.811-1.5-1.218-3.234-1.218-5.203 0-1.969.39-3.695 1.172-5.188.788-1.488 1.898-2.632 3.328-3.437 1.438-.8 3.082-1.203 4.938-1.203 1.812 0 3.41.398 4.796 1.187a8.19 8.19 0 0 1 3.22 3.266c.757 1.375 1.14 2.933 1.14 4.672Zm-3.266-.656c0-1.208-.273-2.243-.812-3.11a5.146 5.146 0 0 0-2.172-1.984c-.918-.457-1.934-.688-3.047-.688-1.606 0-2.969.512-4.094 1.532-1.125 1.023-1.773 2.437-1.937 4.25Zm16.742-8.501c2.32 0 4.204.704 5.641 2.11 1.438 1.406 2.156 3.433 2.156 6.078v11.25h-3.14v-10.797c0-1.906-.477-3.363-1.422-4.375-.95-1.008-2.25-1.515-3.906-1.515-1.668 0-2.997.527-3.985 1.578-.992 1.043-1.484 2.562-1.484 4.562v10.547h-3.157v-19.078h3.157v2.703a6.365 6.365 0 0 1 2.562-2.25c1.082-.54 2.274-.813 3.578-.813Zm0 0" fill="#0cc0df"/><path fill="none" d="M185.855 215.344v-67.797m-77.715 0h155.434" stroke="#310686" stroke-width="6"/><path d="M119.377 223.83c.258.043.5.152.719.328.219.18.39.399.516.656.132.25.203.524.203.813 0 .367-.094.7-.282 1-.187.293-.464.527-.828.703-.355.168-.777.25-1.265.25h-2.72v-7.281h2.61c.5 0 .922.086 1.266.25.351.168.613.39.781.672.176.273.266.586.266.937 0 .43-.121.781-.36 1.063-.23.28-.53.484-.906.609Zm-2.703-.39h1.594c.445 0 .789-.102 1.031-.313.25-.207.375-.492.375-.86 0-.363-.125-.648-.375-.859-.242-.207-.59-.312-1.047-.312h-1.578Zm1.688 3.358c.468 0 .832-.11 1.093-.328.27-.227.407-.54.407-.938 0-.406-.141-.723-.422-.953-.274-.227-.641-.344-1.11-.344h-1.656v2.565Zm8.837-4.937v5.719h-.953v-.844c-.18.293-.43.524-.75.688a2.45 2.45 0 0 1-1.078.234c-.438 0-.836-.086-1.188-.266a2.05 2.05 0 0 1-.843-.828c-.211-.374-.313-.828-.313-1.359v-3.344h.938v3.219c0 .563.14 1 .421 1.313.29.304.68.453 1.172.453.508 0 .91-.157 1.203-.47.29-.32.438-.78.438-1.374v-3.14Zm2.105-.937a.636.636 0 0 1-.469-.188.613.613 0 0 1-.187-.453.62.62 0 0 1 .187-.453.636.636 0 0 1 .469-.188c.176 0 .32.063.437.188a.62.62 0 0 1 .188.453c0 .18-.063.328-.188.453a.573.573 0 0 1-.437.188Zm.453.937v5.719h-.953v-5.719Zm2.568-2v7.719h-.953v-7.719Zm1.272 4.844c0-.582.113-1.094.344-1.531.238-.446.566-.79.984-1.032.414-.25.88-.375 1.39-.375.446 0 .86.106 1.235.313.383.2.68.465.89.797v-3.017h.954v7.72h-.953v-1.078a2.188 2.188 0 0 1-.844.844c-.367.218-.797.328-1.297.328-.5 0-.96-.125-1.375-.375a2.624 2.624 0 0 1-.984-1.047 3.394 3.394 0 0 1-.344-1.547Zm4.844 0c0-.426-.09-.8-.266-1.125a1.858 1.858 0 0 0-.718-.734 1.955 1.955 0 0 0-.97-.25c-.355 0-.679.086-.968.25a1.848 1.848 0 0 0-.703.734c-.168.313-.25.688-.25 1.125 0 .438.082.82.25 1.14.176.325.41.575.703.75.29.169.613.25.969.25.351 0 .676-.081.969-.25.3-.175.539-.425.718-.75.176-.32.266-.702.266-1.14Zm3.058-3.781a.636.636 0 0 1-.469-.188.613.613 0 0 1-.187-.453.62.62 0 0 1 .187-.453.636.636 0 0 1 .469-.188c.176 0 .32.063.437.188a.62.62 0 0 1 .188.453c0 .18-.063.328-.188.453a.573.573 0 0 1-.437.188Zm.453.937v5.719h-.953v-5.719Zm4.412-.109c.695 0 1.258.215 1.687.64.426.418.64 1.024.64 1.813v3.375h-.937v-3.234c0-.57-.14-1.008-.421-1.313-.283-.3-.673-.453-1.173-.453s-.903.156-1.204.469c-.292.312-.437.773-.437 1.375v3.156h-.952v-5.719h.953v.813c.188-.29.441-.516.766-.672.32-.164.68-.25 1.078-.25Zm6.245.015c.5 0 .93.11 1.297.329.375.21.656.48.844.812v-1.047h.953v5.844c0 .52-.117.984-.344 1.39a2.353 2.353 0 0 1-.953.954c-.406.226-.887.344-1.437.344-.75 0-1.375-.18-1.875-.532-.5-.355-.797-.84-.891-1.453h.938c.101.352.316.633.64.844.332.219.727.328 1.188.328.52 0 .945-.168 1.28-.5.333-.324.5-.781.5-1.375v-1.203a2.298 2.298 0 0 1-.843.844c-.367.218-.797.328-1.297.328-.5 0-.96-.125-1.375-.375a2.624 2.624 0 0 1-.984-1.047 3.394 3.394 0 0 1-.344-1.547c0-.582.113-1.094.344-1.531.238-.446.566-.79.984-1.032.414-.25.875-.375 1.375-.375Zm2.14 2.938c0-.426-.089-.8-.265-1.125a1.858 1.858 0 0 0-.718-.734 1.955 1.955 0 0 0-.97-.25c-.355 0-.679.086-.968.25a1.848 1.848 0 0 0-.703.734c-.168.313-.25.688-.25 1.125 0 .438.082.82.25 1.14.176.325.41.575.703.75.29.169.613.25.969.25.351 0 .676-.081.969-.25.3-.175.539-.425.718-.75.176-.32.266-.702.266-1.14Zm0 0" fill="#310686"/><g transform="translate(156.511 227.58)" fill="#310686"/><path d="m165.19 220.299-2.358 4.531v2.75h-.953v-2.75l-2.376-4.531h1.047l1.797 3.687 1.797-3.686Zm3.504 7.375a2.947 2.947 0 0 1-1.453-.36 2.684 2.684 0 0 1-1.032-1.046c-.242-.446-.358-.97-.358-1.563 0-.582.125-1.098.375-1.547.25-.445.594-.789 1.031-1.031a3.1 3.1 0 0 1 1.485-.36c.539 0 1.031.122 1.469.36.437.242.78.586 1.03 1.031.259.45.391.965.391 1.547 0 .594-.132 1.117-.39 1.563a2.79 2.79 0 0 1-1.065 1.046c-.449.243-.945.36-1.484.36Zm0-.828c.344 0 .66-.079.953-.235.3-.164.547-.41.734-.734.188-.32.282-.711.282-1.172 0-.457-.094-.844-.282-1.156a1.782 1.782 0 0 0-.703-.719 1.99 1.99 0 0 0-.953-.234 1.98 1.98 0 0 0-.953.234 1.734 1.734 0 0 0-.703.719c-.168.312-.25.699-.25 1.156 0 .469.082.867.25 1.188.176.324.406.562.687.718.282.156.594.235.938.235Zm9.261-4.985v5.719h-.953v-.844c-.18.293-.43.524-.75.688a2.45 2.45 0 0 1-1.078.234c-.438 0-.836-.086-1.188-.266a2.05 2.05 0 0 1-.843-.828c-.211-.374-.313-.828-.313-1.359v-3.344h.938v3.219c0 .563.14 1 .421 1.313.29.304.68.453 1.172.453.508 0 .91-.157 1.203-.47.29-.32.438-.78.438-1.374v-3.14Zm2.557.922c.164-.32.406-.57.719-.75.312-.187.687-.281 1.125-.281v.984h-.25c-1.063 0-1.594.578-1.594 1.735v3.109h-.953v-5.719h.953Zm0 0" fill="#310686"/><g transform="translate(182.656 227.58)" fill="#310686"/><path d="M188.507 220.299c.8 0 1.488.152 2.062.453a3.12 3.12 0 0 1 1.344 1.266c.312.554.468 1.199.468 1.937 0 .75-.156 1.402-.468 1.953a3.11 3.11 0 0 1-1.344 1.25c-.574.282-1.262.422-2.063.422h-2.265v-7.281Zm0 6.5c.945 0 1.664-.25 2.156-.75.488-.5.734-1.196.734-2.094 0-.906-.25-1.61-.75-2.11-.492-.506-1.203-.765-2.14-.765h-1.313v5.719Zm5.616-5.875a.636.636 0 0 1-.469-.188.613.613 0 0 1-.187-.453.62.62 0 0 1 .187-.453.636.636 0 0 1 .469-.188c.176 0 .32.063.437.188a.62.62 0 0 1 .188.453c0 .18-.063.328-.188.453a.573.573 0 0 1-.437.188Zm.453.937v5.719h-.953v-5.719Zm3.975-.094c.5 0 .93.11 1.297.329.375.21.656.48.844.812v-1.047h.953v5.844c0 .52-.117.984-.344 1.39a2.353 2.353 0 0 1-.953.954c-.406.226-.887.344-1.437.344-.75 0-1.375-.18-1.875-.532-.5-.355-.797-.84-.891-1.453h.938c.101.352.316.633.64.844.332.219.727.328 1.188.328.52 0 .945-.168 1.28-.5.333-.324.5-.781.5-1.375v-1.203a2.298 2.298 0 0 1-.843.844c-.367.218-.797.328-1.297.328-.5 0-.96-.125-1.375-.375a2.624 2.624 0 0 1-.984-1.047 3.394 3.394 0 0 1-.344-1.547c0-.582.113-1.094.344-1.531.238-.446.566-.79.984-1.032.414-.25.875-.375 1.375-.375Zm2.14 2.938c0-.426-.089-.8-.265-1.125a1.858 1.858 0 0 0-.718-.734 1.955 1.955 0 0 0-.97-.25c-.355 0-.679.086-.968.25a1.848 1.848 0 0 0-.703.734c-.168.313-.25.688-.25 1.125 0 .438.082.82.25 1.14.176.325.41.575.703.75.29.169.613.25.969.25.351 0 .676-.081.969-.25.3-.175.539-.425.718-.75.176-.32.266-.702.266-1.14Zm3.059-3.781a.636.636 0 0 1-.469-.188.613.613 0 0 1-.187-.453.62.62 0 0 1 .187-.453.636.636 0 0 1 .469-.188c.176 0 .32.063.437.188a.62.62 0 0 1 .188.453c0 .18-.063.328-.188.453a.573.573 0 0 1-.437.188Zm.453.937v5.719h-.953v-5.719Zm2.787.781v3.375c0 .282.054.481.172.594.113.117.316.172.609.172h.703v.797h-.86c-.523 0-.917-.117-1.187-.36-.261-.25-.39-.648-.39-1.203v-3.375h-.75v-.78h.75v-1.438h.953v1.437h1.484v.782Zm2.285 2.063c0-.582.113-1.094.344-1.531.238-.446.566-.79.984-1.032.414-.25.875-.375 1.375-.375s.93.11 1.297.329c.375.21.656.48.844.812v-1.047h.953v5.719h-.953v-1.063c-.188.336-.469.61-.844.829a2.53 2.53 0 0 1-1.297.328 2.64 2.64 0 0 1-1.39-.375 2.67 2.67 0 0 1-.97-1.047c-.23-.457-.343-.973-.343-1.547Zm4.844 0c0-.426-.09-.8-.266-1.125a1.858 1.858 0 0 0-.718-.734 1.955 1.955 0 0 0-.97-.25c-.355 0-.679.086-.968.25a1.848 1.848 0 0 0-.703.734c-.168.313-.25.688-.25 1.125 0 .438.082.82.25 1.14.176.325.41.575.703.75.29.169.613.25.969.25.351 0 .676-.081.969-.25.3-.175.539-.425.718-.75.176-.32.266-.702.266-1.14Zm3.511-4.844v7.719h-.953v-7.719Zm0 0" fill="#310686"/><g transform="translate(218.449 227.58)" fill="#310686"/><path d="M222.987 220.299v7.281h-.953v-7.281Zm1.271 4.406c0-.582.113-1.094.344-1.531.238-.446.566-.79.984-1.032.414-.25.88-.375 1.39-.375.446 0 .86.106 1.235.313.383.2.68.465.89.797v-3.017h.954v7.72h-.953v-1.078a2.188 2.188 0 0 1-.844.844c-.367.218-.797.328-1.297.328-.5 0-.96-.125-1.375-.375a2.624 2.624 0 0 1-.984-1.047 3.394 3.394 0 0 1-.344-1.547Zm4.844 0c0-.426-.09-.8-.266-1.125a1.858 1.858 0 0 0-.718-.734 1.955 1.955 0 0 0-.97-.25c-.355 0-.679.086-.968.25a1.848 1.848 0 0 0-.703.734c-.168.313-.25.688-.25 1.125 0 .438.082.82.25 1.14.176.325.41.575.703.75.29.169.613.25.969.25.351 0 .676-.081.969-.25.3-.175.539-.425.718-.75.176-.32.266-.702.266-1.14Zm7.777-.203c0 .18-.012.371-.032.578h-4.562c.031.563.223 1.008.578 1.328.352.313.781.469 1.281.469.406 0 .742-.094 1.016-.281.281-.196.476-.457.594-.782h1.015c-.156.555-.465 1-.922 1.344-.46.344-1.027.516-1.703.516a2.975 2.975 0 0 1-1.469-.36 2.583 2.583 0 0 1-1-1.046c-.242-.446-.358-.97-.358-1.563 0-.582.113-1.098.344-1.547a2.52 2.52 0 0 1 1-1.031c.426-.238.922-.36 1.484-.36.54 0 1.02.122 1.438.36.414.23.734.555.953.969.226.418.344.886.344 1.406Zm-.97-.203c0-.352-.085-.66-.25-.922a1.5 1.5 0 0 0-.655-.61 2.045 2.045 0 0 0-.907-.203c-.48 0-.89.157-1.234.47-.336.304-.523.726-.563 1.265Zm5.022-2.547c.695 0 1.258.215 1.687.64.426.418.64 1.024.64 1.813v3.375h-.937v-3.234c0-.57-.14-1.008-.421-1.313-.283-.3-.673-.453-1.173-.453s-.903.156-1.204.469c-.292.312-.437.773-.437 1.375v3.156h-.952v-5.719h.953v.813c.188-.29.441-.516.766-.672.32-.164.68-.25 1.078-.25Zm5.058.89v3.375c0 .282.054.481.172.594.113.117.316.172.609.172h.703v.797h-.86c-.523 0-.917-.117-1.187-.36-.261-.25-.39-.648-.39-1.203v-3.375h-.75v-.78h.75v-1.438h.953v1.437h1.484v.782Zm3.128-1.718a.636.636 0 0 1-.469-.188.613.613 0 0 1-.187-.453.62.62 0 0 1 .187-.453.636.636 0 0 1 .469-.188c.176 0 .32.063.437.188a.62.62 0 0 1 .188.453c0 .18-.063.328-.188.453a.573.573 0 0 1-.437.188Zm.453.937v5.719h-.953v-5.719Zm2.788.781v3.375c0 .282.054.481.172.594.113.117.316.172.609.172h.703v.797h-.86c-.523 0-.917-.117-1.187-.36-.261-.25-.39-.648-.39-1.203v-3.375h-.75v-.78h.75v-1.438h.953v1.437h1.484v.782Zm7.566-.781-3.453 8.407h-.984l1.14-2.75-2.311-5.658h1.047l1.797 4.64 1.781-4.64Zm0 0" fill="#310686"/></svg>