<svg xmlns="http://www.w3.org/2000/svg" xmlns:xlink="http://www.w3.org/1999/xlink" width="500" zoomAndPan="magnify" viewBox="0 0 375 374.999991" height="500" preserveAspectRatio="xMidYMid meet" version="1.0"><defs><g/></defs><g fill="#0cc0df" fill-opacity="1"><g transform="translate(111.426312, 190.86617)"><g><path d="M 20.09375 -10.28125 C 20.09375 -9.675781 20.054688 -9.035156 19.984375 -8.359375 L 4.734375 -8.359375 C 4.847656 -6.472656 5.488281 -5.003906 6.65625 -3.953125 C 7.832031 -2.898438 9.257812 -2.375 10.9375 -2.375 C 12.300781 -2.375 13.441406 -2.691406 14.359375 -3.328125 C 15.285156 -3.960938 15.929688 -4.816406 16.296875 -5.890625 L 19.71875 -5.890625 C 19.207031 -4.054688 18.179688 -2.5625 16.640625 -1.40625 C 15.109375 -0.257812 13.207031 0.3125 10.9375 0.3125 C 9.125 0.3125 7.503906 -0.09375 6.078125 -0.90625 C 4.648438 -1.71875 3.53125 -2.875 2.71875 -4.375 C 1.90625 -5.875 1.5 -7.609375 1.5 -9.578125 C 1.5 -11.546875 1.890625 -13.273438 2.671875 -14.765625 C 3.460938 -16.253906 4.570312 -17.398438 6 -18.203125 C 7.4375 -19.003906 9.082031 -19.40625 10.9375 -19.40625 C 12.75 -19.40625 14.347656 -19.007812 15.734375 -18.21875 C 17.128906 -17.425781 18.203125 -16.335938 18.953125 -14.953125 C 19.710938 -13.578125 20.09375 -12.019531 20.09375 -10.28125 Z M 16.828125 -10.9375 C 16.828125 -12.144531 16.554688 -13.179688 16.015625 -14.046875 C 15.484375 -14.921875 14.757812 -15.582031 13.84375 -16.03125 C 12.925781 -16.488281 11.910156 -16.71875 10.796875 -16.71875 C 9.191406 -16.71875 7.828125 -16.207031 6.703125 -15.1875 C 5.578125 -14.164062 4.929688 -12.75 4.765625 -10.9375 Z M 16.828125 -10.9375 "/></g></g></g><g fill="#0cc0df" fill-opacity="1"><g transform="translate(133.012431, 190.86617)"><g><path d="M 1.5 -9.578125 C 1.5 -11.546875 1.890625 -13.269531 2.671875 -14.75 C 3.460938 -16.226562 4.5625 -17.375 5.96875 -18.1875 C 7.375 -19 8.984375 -19.40625 10.796875 -19.40625 C 13.140625 -19.40625 15.070312 -18.832031 16.59375 -17.6875 C 18.113281 -16.550781 19.117188 -14.972656 19.609375 -12.953125 L 16.1875 -12.953125 C 15.863281 -14.117188 15.234375 -15.035156 14.296875 -15.703125 C 13.359375 -16.378906 12.191406 -16.71875 10.796875 -16.71875 C 8.984375 -16.71875 7.519531 -16.09375 6.40625 -14.84375 C 5.289062 -13.601562 4.734375 -11.847656 4.734375 -9.578125 C 4.734375 -7.273438 5.289062 -5.5 6.40625 -4.25 C 7.519531 -3 8.984375 -2.375 10.796875 -2.375 C 12.191406 -2.375 13.351562 -2.695312 14.28125 -3.34375 C 15.207031 -3.988281 15.84375 -4.914062 16.1875 -6.125 L 19.609375 -6.125 C 19.097656 -4.175781 18.078125 -2.613281 16.546875 -1.4375 C 15.015625 -0.269531 13.097656 0.3125 10.796875 0.3125 C 8.984375 0.3125 7.375 -0.09375 5.96875 -0.90625 C 4.5625 -1.71875 3.460938 -2.863281 2.671875 -4.34375 C 1.890625 -5.832031 1.5 -7.578125 1.5 -9.578125 Z M 1.5 -9.578125 "/></g></g></g><g fill="#0cc0df" fill-opacity="1"><g transform="translate(154.145936, 190.86617)"><g><path d="M 12.15625 -19.4375 C 13.59375 -19.4375 14.890625 -19.128906 16.046875 -18.515625 C 17.210938 -17.898438 18.125 -16.972656 18.78125 -15.734375 C 19.445312 -14.503906 19.78125 -13.007812 19.78125 -11.25 L 19.78125 0 L 16.640625 0 L 16.640625 -10.796875 C 16.640625 -12.703125 16.164062 -14.160156 15.21875 -15.171875 C 14.269531 -16.179688 12.96875 -16.6875 11.3125 -16.6875 C 9.644531 -16.6875 8.316406 -16.160156 7.328125 -15.109375 C 6.335938 -14.066406 5.84375 -12.546875 5.84375 -10.546875 L 5.84375 0 L 2.6875 0 L 2.6875 -25.765625 L 5.84375 -25.765625 L 5.84375 -16.375 C 6.476562 -17.34375 7.34375 -18.09375 8.4375 -18.625 C 9.539062 -19.164062 10.78125 -19.4375 12.15625 -19.4375 Z M 12.15625 -19.4375 "/></g></g></g><g fill="#0cc0df" fill-opacity="1"><g transform="translate(176.430214, 190.86617)"><g/></g></g><g fill="#0cc0df" fill-opacity="1"><g transform="translate(185.726169, 190.86617)"><g/></g></g><g fill="#0cc0df" fill-opacity="1"><g transform="translate(195.027869, 190.86617)"><g><path d="M 1.5 -9.609375 C 1.5 -11.554688 1.890625 -13.269531 2.671875 -14.75 C 3.460938 -16.226562 4.550781 -17.375 5.9375 -18.1875 C 7.320312 -19 8.875 -19.40625 10.59375 -19.40625 C 12.070312 -19.40625 13.445312 -19.0625 14.71875 -18.375 C 16 -17.6875 16.976562 -16.785156 17.65625 -15.671875 L 17.65625 -25.765625 L 20.859375 -25.765625 L 20.859375 0 L 17.65625 0 L 17.65625 -3.59375 C 17.03125 -2.445312 16.101562 -1.507812 14.875 -0.78125 C 13.644531 -0.0507812 12.203125 0.3125 10.546875 0.3125 C 8.859375 0.3125 7.320312 -0.101562 5.9375 -0.9375 C 4.550781 -1.769531 3.460938 -2.941406 2.671875 -4.453125 C 1.890625 -5.960938 1.5 -7.679688 1.5 -9.609375 Z M 17.65625 -9.578125 C 17.65625 -11.015625 17.363281 -12.265625 16.78125 -13.328125 C 16.207031 -14.398438 15.425781 -15.21875 14.4375 -15.78125 C 13.445312 -16.351562 12.363281 -16.640625 11.1875 -16.640625 C 10 -16.640625 8.914062 -16.359375 7.9375 -15.796875 C 6.96875 -15.242188 6.191406 -14.429688 5.609375 -13.359375 C 5.023438 -12.296875 4.734375 -11.046875 4.734375 -9.609375 C 4.734375 -8.148438 5.023438 -6.878906 5.609375 -5.796875 C 6.191406 -4.710938 6.96875 -3.882812 7.9375 -3.3125 C 8.914062 -2.75 10 -2.46875 11.1875 -2.46875 C 12.363281 -2.46875 13.445312 -2.75 14.4375 -3.3125 C 15.425781 -3.882812 16.207031 -4.710938 16.78125 -5.796875 C 17.363281 -6.878906 17.65625 -8.140625 17.65625 -9.578125 Z M 17.65625 -9.578125 "/></g></g></g><g fill="#0cc0df" fill-opacity="1"><g transform="translate(218.563706, 190.86617)"><g><path d="M 20.09375 -10.28125 C 20.09375 -9.675781 20.054688 -9.035156 19.984375 -8.359375 L 4.734375 -8.359375 C 4.847656 -6.472656 5.488281 -5.003906 6.65625 -3.953125 C 7.832031 -2.898438 9.257812 -2.375 10.9375 -2.375 C 12.300781 -2.375 13.441406 -2.691406 14.359375 -3.328125 C 15.285156 -3.960938 15.929688 -4.816406 16.296875 -5.890625 L 19.71875 -5.890625 C 19.207031 -4.054688 18.179688 -2.5625 16.640625 -1.40625 C 15.109375 -0.257812 13.207031 0.3125 10.9375 0.3125 C 9.125 0.3125 7.503906 -0.09375 6.078125 -0.90625 C 4.648438 -1.71875 3.53125 -2.875 2.71875 -4.375 C 1.90625 -5.875 1.5 -7.609375 1.5 -9.578125 C 1.5 -11.546875 1.890625 -13.273438 2.671875 -14.765625 C 3.460938 -16.253906 4.570312 -17.398438 6 -18.203125 C 7.4375 -19.003906 9.082031 -19.40625 10.9375 -19.40625 C 12.75 -19.40625 14.347656 -19.007812 15.734375 -18.21875 C 17.128906 -17.425781 18.203125 -16.335938 18.953125 -14.953125 C 19.710938 -13.578125 20.09375 -12.019531 20.09375 -10.28125 Z M 16.828125 -10.9375 C 16.828125 -12.144531 16.554688 -13.179688 16.015625 -14.046875 C 15.484375 -14.921875 14.757812 -15.582031 13.84375 -16.03125 C 12.925781 -16.488281 11.910156 -16.71875 10.796875 -16.71875 C 9.191406 -16.71875 7.828125 -16.207031 6.703125 -15.1875 C 5.578125 -14.164062 4.929688 -12.75 4.765625 -10.9375 Z M 16.828125 -10.9375 "/></g></g></g><g fill="#0cc0df" fill-opacity="1"><g transform="translate(240.149825, 190.86617)"><g><path d="M 11.984375 -19.4375 C 14.304688 -19.4375 16.1875 -18.734375 17.625 -17.328125 C 19.0625 -15.921875 19.78125 -13.894531 19.78125 -11.25 L 19.78125 0 L 16.640625 0 L 16.640625 -10.796875 C 16.640625 -12.703125 16.164062 -14.160156 15.21875 -15.171875 C 14.269531 -16.179688 12.96875 -16.6875 11.3125 -16.6875 C 9.644531 -16.6875 8.316406 -16.160156 7.328125 -15.109375 C 6.335938 -14.066406 5.84375 -12.546875 5.84375 -10.546875 L 5.84375 0 L 2.6875 0 L 2.6875 -19.078125 L 5.84375 -19.078125 L 5.84375 -16.375 C 6.476562 -17.34375 7.332031 -18.09375 8.40625 -18.625 C 9.488281 -19.164062 10.679688 -19.4375 11.984375 -19.4375 Z M 11.984375 -19.4375 "/></g></g></g><path stroke-linecap="butt" transform="matrix(0, -0.75, 0.75, 0, 182.855412, 215.342359)" fill="none" stroke-linejoin="miter" d="M -0.00185405 4.000076 L 90.393985 4.000076 " stroke="#310686" stroke-width="8" stroke-opacity="1" stroke-miterlimit="4"/><path stroke-linecap="butt" transform="matrix(0.75, 0, 0, 0.75, 108.139092, 144.548415)" fill="none" stroke-linejoin="miter" d="M 0.00204427 3.997948 L 207.24685 3.997948 " stroke="#310686" stroke-width="8" stroke-opacity="1" stroke-miterlimit="4"/><g fill="#310686" fill-opacity="1"><g transform="translate(114.923957, 227.579544)"><g><path d="M 4.453125 -3.75 C 4.710938 -3.707031 4.953125 -3.597656 5.171875 -3.421875 C 5.390625 -3.242188 5.5625 -3.023438 5.6875 -2.765625 C 5.820312 -2.515625 5.890625 -2.242188 5.890625 -1.953125 C 5.890625 -1.585938 5.796875 -1.253906 5.609375 -0.953125 C 5.421875 -0.660156 5.144531 -0.425781 4.78125 -0.25 C 4.425781 -0.0820312 4.003906 0 3.515625 0 L 0.796875 0 L 0.796875 -7.28125 L 3.40625 -7.28125 C 3.90625 -7.28125 4.328125 -7.195312 4.671875 -7.03125 C 5.023438 -6.863281 5.285156 -6.640625 5.453125 -6.359375 C 5.628906 -6.085938 5.71875 -5.773438 5.71875 -5.421875 C 5.71875 -4.992188 5.597656 -4.640625 5.359375 -4.359375 C 5.128906 -4.078125 4.828125 -3.875 4.453125 -3.75 Z M 1.75 -4.140625 L 3.34375 -4.140625 C 3.789062 -4.140625 4.132812 -4.242188 4.375 -4.453125 C 4.625 -4.660156 4.75 -4.945312 4.75 -5.3125 C 4.75 -5.675781 4.625 -5.960938 4.375 -6.171875 C 4.132812 -6.378906 3.785156 -6.484375 3.328125 -6.484375 L 1.75 -6.484375 Z M 3.4375 -0.78125 C 3.90625 -0.78125 4.269531 -0.890625 4.53125 -1.109375 C 4.800781 -1.335938 4.9375 -1.648438 4.9375 -2.046875 C 4.9375 -2.453125 4.796875 -2.769531 4.515625 -3 C 4.242188 -3.226562 3.875 -3.34375 3.40625 -3.34375 L 1.75 -3.34375 L 1.75 -0.78125 Z M 3.4375 -0.78125 "/></g></g></g><g fill="#310686" fill-opacity="1"><g transform="translate(121.324434, 227.579544)"><g><path d="M 5.875 -5.71875 L 5.875 0 L 4.921875 0 L 4.921875 -0.84375 C 4.742188 -0.550781 4.492188 -0.320312 4.171875 -0.15625 C 3.847656 0 3.488281 0.078125 3.09375 0.078125 C 2.65625 0.078125 2.257812 -0.0078125 1.90625 -0.1875 C 1.550781 -0.375 1.269531 -0.648438 1.0625 -1.015625 C 0.851562 -1.390625 0.75 -1.84375 0.75 -2.375 L 0.75 -5.71875 L 1.6875 -5.71875 L 1.6875 -2.5 C 1.6875 -1.9375 1.828125 -1.5 2.109375 -1.1875 C 2.398438 -0.882812 2.789062 -0.734375 3.28125 -0.734375 C 3.789062 -0.734375 4.191406 -0.890625 4.484375 -1.203125 C 4.773438 -1.523438 4.921875 -1.984375 4.921875 -2.578125 L 4.921875 -5.71875 Z M 5.875 -5.71875 "/></g></g></g><g fill="#310686" fill-opacity="1"><g transform="translate(128.006827, 227.579544)"><g><path d="M 1.296875 -6.65625 C 1.109375 -6.65625 0.953125 -6.71875 0.828125 -6.84375 C 0.703125 -6.96875 0.640625 -7.117188 0.640625 -7.296875 C 0.640625 -7.472656 0.703125 -7.625 0.828125 -7.75 C 0.953125 -7.875 1.109375 -7.9375 1.296875 -7.9375 C 1.472656 -7.9375 1.617188 -7.875 1.734375 -7.75 C 1.859375 -7.625 1.921875 -7.472656 1.921875 -7.296875 C 1.921875 -7.117188 1.859375 -6.96875 1.734375 -6.84375 C 1.617188 -6.71875 1.472656 -6.65625 1.296875 -6.65625 Z M 1.75 -5.71875 L 1.75 0 L 0.796875 0 L 0.796875 -5.71875 Z M 1.75 -5.71875 "/></g></g></g><g fill="#310686" fill-opacity="1"><g transform="translate(130.57537, 227.579544)"><g><path d="M 1.75 -7.71875 L 1.75 0 L 0.796875 0 L 0.796875 -7.71875 Z M 1.75 -7.71875 "/></g></g></g><g fill="#310686" fill-opacity="1"><g transform="translate(133.143912, 227.579544)"><g><path d="M 0.453125 -2.875 C 0.453125 -3.457031 0.566406 -3.96875 0.796875 -4.40625 C 1.035156 -4.851562 1.363281 -5.195312 1.78125 -5.4375 C 2.195312 -5.6875 2.660156 -5.8125 3.171875 -5.8125 C 3.617188 -5.8125 4.03125 -5.707031 4.40625 -5.5 C 4.789062 -5.300781 5.085938 -5.035156 5.296875 -4.703125 L 5.296875 -7.71875 L 6.25 -7.71875 L 6.25 0 L 5.296875 0 L 5.296875 -1.078125 C 5.109375 -0.734375 4.828125 -0.453125 4.453125 -0.234375 C 4.085938 -0.015625 3.65625 0.09375 3.15625 0.09375 C 2.65625 0.09375 2.195312 -0.03125 1.78125 -0.28125 C 1.363281 -0.53125 1.035156 -0.878906 0.796875 -1.328125 C 0.566406 -1.785156 0.453125 -2.300781 0.453125 -2.875 Z M 5.296875 -2.875 C 5.296875 -3.300781 5.207031 -3.675781 5.03125 -4 C 4.851562 -4.320312 4.613281 -4.566406 4.3125 -4.734375 C 4.019531 -4.898438 3.695312 -4.984375 3.34375 -4.984375 C 2.988281 -4.984375 2.664062 -4.898438 2.375 -4.734375 C 2.082031 -4.566406 1.847656 -4.320312 1.671875 -4 C 1.503906 -3.6875 1.421875 -3.3125 1.421875 -2.875 C 1.421875 -2.4375 1.503906 -2.054688 1.671875 -1.734375 C 1.847656 -1.410156 2.082031 -1.160156 2.375 -0.984375 C 2.664062 -0.816406 2.988281 -0.734375 3.34375 -0.734375 C 3.695312 -0.734375 4.019531 -0.816406 4.3125 -0.984375 C 4.613281 -1.160156 4.851562 -1.410156 5.03125 -1.734375 C 5.207031 -2.054688 5.296875 -2.4375 5.296875 -2.875 Z M 5.296875 -2.875 "/></g></g></g><g fill="#310686" fill-opacity="1"><g transform="translate(140.202193, 227.579544)"><g><path d="M 1.296875 -6.65625 C 1.109375 -6.65625 0.953125 -6.71875 0.828125 -6.84375 C 0.703125 -6.96875 0.640625 -7.117188 0.640625 -7.296875 C 0.640625 -7.472656 0.703125 -7.625 0.828125 -7.75 C 0.953125 -7.875 1.109375 -7.9375 1.296875 -7.9375 C 1.472656 -7.9375 1.617188 -7.875 1.734375 -7.75 C 1.859375 -7.625 1.921875 -7.472656 1.921875 -7.296875 C 1.921875 -7.117188 1.859375 -6.96875 1.734375 -6.84375 C 1.617188 -6.71875 1.472656 -6.65625 1.296875 -6.65625 Z M 1.75 -5.71875 L 1.75 0 L 0.796875 0 L 0.796875 -5.71875 Z M 1.75 -5.71875 "/></g></g></g><g fill="#310686" fill-opacity="1"><g transform="translate(142.770735, 227.579544)"><g><path d="M 3.59375 -5.828125 C 4.289062 -5.828125 4.851562 -5.613281 5.28125 -5.1875 C 5.707031 -4.769531 5.921875 -4.164062 5.921875 -3.375 L 5.921875 0 L 4.984375 0 L 4.984375 -3.234375 C 4.984375 -3.804688 4.84375 -4.242188 4.5625 -4.546875 C 4.28125 -4.847656 3.890625 -5 3.390625 -5 C 2.890625 -5 2.488281 -4.84375 2.1875 -4.53125 C 1.894531 -4.21875 1.75 -3.757812 1.75 -3.15625 L 1.75 0 L 0.796875 0 L 0.796875 -5.71875 L 1.75 -5.71875 L 1.75 -4.90625 C 1.9375 -5.195312 2.191406 -5.421875 2.515625 -5.578125 C 2.835938 -5.742188 3.195312 -5.828125 3.59375 -5.828125 Z M 3.59375 -5.828125 "/></g></g></g><g fill="#310686" fill-opacity="1"><g transform="translate(149.453128, 227.579544)"><g><path d="M 3.15625 -5.8125 C 3.65625 -5.8125 4.085938 -5.703125 4.453125 -5.484375 C 4.828125 -5.273438 5.109375 -5.003906 5.296875 -4.671875 L 5.296875 -5.71875 L 6.25 -5.71875 L 6.25 0.125 C 6.25 0.644531 6.132812 1.109375 5.90625 1.515625 C 5.6875 1.921875 5.367188 2.238281 4.953125 2.46875 C 4.546875 2.695312 4.066406 2.8125 3.515625 2.8125 C 2.765625 2.8125 2.140625 2.632812 1.640625 2.28125 C 1.140625 1.925781 0.84375 1.441406 0.75 0.828125 L 1.6875 0.828125 C 1.789062 1.179688 2.003906 1.460938 2.328125 1.671875 C 2.660156 1.890625 3.054688 2 3.515625 2 C 4.035156 2 4.460938 1.832031 4.796875 1.5 C 5.128906 1.175781 5.296875 0.71875 5.296875 0.125 L 5.296875 -1.078125 C 5.109375 -0.742188 4.828125 -0.460938 4.453125 -0.234375 C 4.085938 -0.015625 3.65625 0.09375 3.15625 0.09375 C 2.65625 0.09375 2.195312 -0.03125 1.78125 -0.28125 C 1.363281 -0.53125 1.035156 -0.878906 0.796875 -1.328125 C 0.566406 -1.785156 0.453125 -2.300781 0.453125 -2.875 C 0.453125 -3.457031 0.566406 -3.96875 0.796875 -4.40625 C 1.035156 -4.851562 1.363281 -5.195312 1.78125 -5.4375 C 2.195312 -5.6875 2.65625 -5.8125 3.15625 -5.8125 Z M 5.296875 -2.875 C 5.296875 -3.300781 5.207031 -3.675781 5.03125 -4 C 4.851562 -4.320312 4.613281 -4.566406 4.3125 -4.734375 C 4.019531 -4.898438 3.695312 -4.984375 3.34375 -4.984375 C 2.988281 -4.984375 2.664062 -4.898438 2.375 -4.734375 C 2.082031 -4.566406 1.847656 -4.320312 1.671875 -4 C 1.503906 -3.6875 1.421875 -3.3125 1.421875 -2.875 C 1.421875 -2.4375 1.503906 -2.054688 1.671875 -1.734375 C 1.847656 -1.410156 2.082031 -1.160156 2.375 -0.984375 C 2.664062 -0.816406 2.988281 -0.734375 3.34375 -0.734375 C 3.695312 -0.734375 4.019531 -0.816406 4.3125 -0.984375 C 4.613281 -1.160156 4.851562 -1.410156 5.03125 -1.734375 C 5.207031 -2.054688 5.296875 -2.4375 5.296875 -2.875 Z M 5.296875 -2.875 "/></g></g></g><g fill="#310686" fill-opacity="1"><g transform="translate(156.511408, 227.579544)"><g/></g></g><g fill="#310686" fill-opacity="1"><g transform="translate(159.299216, 227.579544)"><g><path d="M 5.890625 -7.28125 L 3.53125 -2.75 L 3.53125 0 L 2.578125 0 L 2.578125 -2.75 L 0.203125 -7.28125 L 1.25 -7.28125 L 3.046875 -3.59375 L 4.84375 -7.28125 Z M 5.890625 -7.28125 "/></g></g></g><g fill="#310686" fill-opacity="1"><g transform="translate(165.396899, 227.579544)"><g><path d="M 3.296875 0.09375 C 2.765625 0.09375 2.28125 -0.0234375 1.84375 -0.265625 C 1.40625 -0.515625 1.0625 -0.863281 0.8125 -1.3125 C 0.570312 -1.757812 0.453125 -2.28125 0.453125 -2.875 C 0.453125 -3.457031 0.578125 -3.972656 0.828125 -4.421875 C 1.078125 -4.867188 1.421875 -5.210938 1.859375 -5.453125 C 2.304688 -5.691406 2.800781 -5.8125 3.34375 -5.8125 C 3.882812 -5.8125 4.375 -5.691406 4.8125 -5.453125 C 5.25 -5.210938 5.59375 -4.867188 5.84375 -4.421875 C 6.101562 -3.972656 6.234375 -3.457031 6.234375 -2.875 C 6.234375 -2.28125 6.101562 -1.757812 5.84375 -1.3125 C 5.582031 -0.863281 5.226562 -0.515625 4.78125 -0.265625 C 4.332031 -0.0234375 3.835938 0.09375 3.296875 0.09375 Z M 3.296875 -0.734375 C 3.640625 -0.734375 3.957031 -0.8125 4.25 -0.96875 C 4.550781 -1.132812 4.796875 -1.378906 4.984375 -1.703125 C 5.171875 -2.023438 5.265625 -2.414062 5.265625 -2.875 C 5.265625 -3.332031 5.171875 -3.71875 4.984375 -4.03125 C 4.804688 -4.351562 4.570312 -4.59375 4.28125 -4.75 C 3.988281 -4.90625 3.671875 -4.984375 3.328125 -4.984375 C 2.984375 -4.984375 2.664062 -4.90625 2.375 -4.75 C 2.082031 -4.59375 1.847656 -4.351562 1.671875 -4.03125 C 1.503906 -3.71875 1.421875 -3.332031 1.421875 -2.875 C 1.421875 -2.40625 1.503906 -2.007812 1.671875 -1.6875 C 1.847656 -1.363281 2.078125 -1.125 2.359375 -0.96875 C 2.640625 -0.8125 2.953125 -0.734375 3.296875 -0.734375 Z M 3.296875 -0.734375 "/></g></g></g><g fill="#310686" fill-opacity="1"><g transform="translate(172.079292, 227.579544)"><g><path d="M 5.875 -5.71875 L 5.875 0 L 4.921875 0 L 4.921875 -0.84375 C 4.742188 -0.550781 4.492188 -0.320312 4.171875 -0.15625 C 3.847656 0 3.488281 0.078125 3.09375 0.078125 C 2.65625 0.078125 2.257812 -0.0078125 1.90625 -0.1875 C 1.550781 -0.375 1.269531 -0.648438 1.0625 -1.015625 C 0.851562 -1.390625 0.75 -1.84375 0.75 -2.375 L 0.75 -5.71875 L 1.6875 -5.71875 L 1.6875 -2.5 C 1.6875 -1.9375 1.828125 -1.5 2.109375 -1.1875 C 2.398438 -0.882812 2.789062 -0.734375 3.28125 -0.734375 C 3.789062 -0.734375 4.191406 -0.890625 4.484375 -1.203125 C 4.773438 -1.523438 4.921875 -1.984375 4.921875 -2.578125 L 4.921875 -5.71875 Z M 5.875 -5.71875 "/></g></g></g><g fill="#310686" fill-opacity="1"><g transform="translate(178.761684, 227.579544)"><g><path d="M 1.75 -4.796875 C 1.914062 -5.117188 2.15625 -5.367188 2.46875 -5.546875 C 2.78125 -5.734375 3.15625 -5.828125 3.59375 -5.828125 L 3.59375 -4.84375 L 3.34375 -4.84375 C 2.28125 -4.84375 1.75 -4.265625 1.75 -3.109375 L 1.75 0 L 0.796875 0 L 0.796875 -5.71875 L 1.75 -5.71875 Z M 1.75 -4.796875 "/></g></g></g><g fill="#310686" fill-opacity="1"><g transform="translate(182.65627, 227.579544)"><g/></g></g><g fill="#310686" fill-opacity="1"><g transform="translate(185.444077, 227.579544)"><g><path d="M 3.0625 -7.28125 C 3.863281 -7.28125 4.550781 -7.128906 5.125 -6.828125 C 5.707031 -6.535156 6.15625 -6.113281 6.46875 -5.5625 C 6.78125 -5.007812 6.9375 -4.363281 6.9375 -3.625 C 6.9375 -2.875 6.78125 -2.222656 6.46875 -1.671875 C 6.15625 -1.128906 5.707031 -0.710938 5.125 -0.421875 C 4.550781 -0.140625 3.863281 0 3.0625 0 L 0.796875 0 L 0.796875 -7.28125 Z M 3.0625 -0.78125 C 4.007812 -0.78125 4.726562 -1.03125 5.21875 -1.53125 C 5.707031 -2.03125 5.953125 -2.726562 5.953125 -3.625 C 5.953125 -4.53125 5.703125 -5.234375 5.203125 -5.734375 C 4.710938 -6.242188 4 -6.5 3.0625 -6.5 L 1.75 -6.5 L 1.75 -0.78125 Z M 3.0625 -0.78125 "/></g></g></g><g fill="#310686" fill-opacity="1"><g transform="translate(192.826031, 227.579544)"><g><path d="M 1.296875 -6.65625 C 1.109375 -6.65625 0.953125 -6.71875 0.828125 -6.84375 C 0.703125 -6.96875 0.640625 -7.117188 0.640625 -7.296875 C 0.640625 -7.472656 0.703125 -7.625 0.828125 -7.75 C 0.953125 -7.875 1.109375 -7.9375 1.296875 -7.9375 C 1.472656 -7.9375 1.617188 -7.875 1.734375 -7.75 C 1.859375 -7.625 1.921875 -7.472656 1.921875 -7.296875 C 1.921875 -7.117188 1.859375 -6.96875 1.734375 -6.84375 C 1.617188 -6.71875 1.472656 -6.65625 1.296875 -6.65625 Z M 1.75 -5.71875 L 1.75 0 L 0.796875 0 L 0.796875 -5.71875 Z M 1.75 -5.71875 "/></g></g></g><g fill="#310686" fill-opacity="1"><g transform="translate(195.394573, 227.579544)"><g><path d="M 3.15625 -5.8125 C 3.65625 -5.8125 4.085938 -5.703125 4.453125 -5.484375 C 4.828125 -5.273438 5.109375 -5.003906 5.296875 -4.671875 L 5.296875 -5.71875 L 6.25 -5.71875 L 6.25 0.125 C 6.25 0.644531 6.132812 1.109375 5.90625 1.515625 C 5.6875 1.921875 5.367188 2.238281 4.953125 2.46875 C 4.546875 2.695312 4.066406 2.8125 3.515625 2.8125 C 2.765625 2.8125 2.140625 2.632812 1.640625 2.28125 C 1.140625 1.925781 0.84375 1.441406 0.75 0.828125 L 1.6875 0.828125 C 1.789062 1.179688 2.003906 1.460938 2.328125 1.671875 C 2.660156 1.890625 3.054688 2 3.515625 2 C 4.035156 2 4.460938 1.832031 4.796875 1.5 C 5.128906 1.175781 5.296875 0.71875 5.296875 0.125 L 5.296875 -1.078125 C 5.109375 -0.742188 4.828125 -0.460938 4.453125 -0.234375 C 4.085938 -0.015625 3.65625 0.09375 3.15625 0.09375 C 2.65625 0.09375 2.195312 -0.03125 1.78125 -0.28125 C 1.363281 -0.53125 1.035156 -0.878906 0.796875 -1.328125 C 0.566406 -1.785156 0.453125 -2.300781 0.453125 -2.875 C 0.453125 -3.457031 0.566406 -3.96875 0.796875 -4.40625 C 1.035156 -4.851562 1.363281 -5.195312 1.78125 -5.4375 C 2.195312 -5.6875 2.65625 -5.8125 3.15625 -5.8125 Z M 5.296875 -2.875 C 5.296875 -3.300781 5.207031 -3.675781 5.03125 -4 C 4.851562 -4.320312 4.613281 -4.566406 4.3125 -4.734375 C 4.019531 -4.898438 3.695312 -4.984375 3.34375 -4.984375 C 2.988281 -4.984375 2.664062 -4.898438 2.375 -4.734375 C 2.082031 -4.566406 1.847656 -4.320312 1.671875 -4 C 1.503906 -3.6875 1.421875 -3.3125 1.421875 -2.875 C 1.421875 -2.4375 1.503906 -2.054688 1.671875 -1.734375 C 1.847656 -1.410156 2.082031 -1.160156 2.375 -0.984375 C 2.664062 -0.816406 2.988281 -0.734375 3.34375 -0.734375 C 3.695312 -0.734375 4.019531 -0.816406 4.3125 -0.984375 C 4.613281 -1.160156 4.851562 -1.410156 5.03125 -1.734375 C 5.207031 -2.054688 5.296875 -2.4375 5.296875 -2.875 Z M 5.296875 -2.875 "/></g></g></g><g fill="#310686" fill-opacity="1"><g transform="translate(202.452854, 227.579544)"><g><path d="M 1.296875 -6.65625 C 1.109375 -6.65625 0.953125 -6.71875 0.828125 -6.84375 C 0.703125 -6.96875 0.640625 -7.117188 0.640625 -7.296875 C 0.640625 -7.472656 0.703125 -7.625 0.828125 -7.75 C 0.953125 -7.875 1.109375 -7.9375 1.296875 -7.9375 C 1.472656 -7.9375 1.617188 -7.875 1.734375 -7.75 C 1.859375 -7.625 1.921875 -7.472656 1.921875 -7.296875 C 1.921875 -7.117188 1.859375 -6.96875 1.734375 -6.84375 C 1.617188 -6.71875 1.472656 -6.65625 1.296875 -6.65625 Z M 1.75 -5.71875 L 1.75 0 L 0.796875 0 L 0.796875 -5.71875 Z M 1.75 -5.71875 "/></g></g></g><g fill="#310686" fill-opacity="1"><g transform="translate(205.021396, 227.579544)"><g><path d="M 1.96875 -4.9375 L 1.96875 -1.5625 C 1.96875 -1.28125 2.023438 -1.082031 2.140625 -0.96875 C 2.253906 -0.851562 2.457031 -0.796875 2.75 -0.796875 L 3.453125 -0.796875 L 3.453125 0 L 2.59375 0 C 2.070312 0 1.675781 -0.117188 1.40625 -0.359375 C 1.144531 -0.609375 1.015625 -1.007812 1.015625 -1.5625 L 1.015625 -4.9375 L 0.265625 -4.9375 L 0.265625 -5.71875 L 1.015625 -5.71875 L 1.015625 -7.15625 L 1.96875 -7.15625 L 1.96875 -5.71875 L 3.453125 -5.71875 L 3.453125 -4.9375 Z M 1.96875 -4.9375 "/></g></g></g><g fill="#310686" fill-opacity="1"><g transform="translate(208.82201, 227.579544)"><g><path d="M 0.453125 -2.875 C 0.453125 -3.457031 0.566406 -3.96875 0.796875 -4.40625 C 1.035156 -4.851562 1.363281 -5.195312 1.78125 -5.4375 C 2.195312 -5.6875 2.65625 -5.8125 3.15625 -5.8125 C 3.65625 -5.8125 4.085938 -5.703125 4.453125 -5.484375 C 4.828125 -5.273438 5.109375 -5.003906 5.296875 -4.671875 L 5.296875 -5.71875 L 6.25 -5.71875 L 6.25 0 L 5.296875 0 L 5.296875 -1.0625 C 5.109375 -0.726562 4.828125 -0.453125 4.453125 -0.234375 C 4.078125 -0.015625 3.644531 0.09375 3.15625 0.09375 C 2.644531 0.09375 2.179688 -0.03125 1.765625 -0.28125 C 1.359375 -0.53125 1.035156 -0.878906 0.796875 -1.328125 C 0.566406 -1.785156 0.453125 -2.300781 0.453125 -2.875 Z M 5.296875 -2.875 C 5.296875 -3.300781 5.207031 -3.675781 5.03125 -4 C 4.851562 -4.320312 4.613281 -4.566406 4.3125 -4.734375 C 4.019531 -4.898438 3.695312 -4.984375 3.34375 -4.984375 C 2.988281 -4.984375 2.664062 -4.898438 2.375 -4.734375 C 2.082031 -4.566406 1.847656 -4.320312 1.671875 -4 C 1.503906 -3.6875 1.421875 -3.3125 1.421875 -2.875 C 1.421875 -2.4375 1.503906 -2.054688 1.671875 -1.734375 C 1.847656 -1.410156 2.082031 -1.160156 2.375 -0.984375 C 2.664062 -0.816406 2.988281 -0.734375 3.34375 -0.734375 C 3.695312 -0.734375 4.019531 -0.816406 4.3125 -0.984375 C 4.613281 -1.160156 4.851562 -1.410156 5.03125 -1.734375 C 5.207031 -2.054688 5.296875 -2.4375 5.296875 -2.875 Z M 5.296875 -2.875 "/></g></g></g><g fill="#310686" fill-opacity="1"><g transform="translate(215.88029, 227.579544)"><g><path d="M 1.75 -7.71875 L 1.75 0 L 0.796875 0 L 0.796875 -7.71875 Z M 1.75 -7.71875 "/></g></g></g><g fill="#310686" fill-opacity="1"><g transform="translate(218.448832, 227.579544)"><g/></g></g><g fill="#310686" fill-opacity="1"><g transform="translate(221.23664, 227.579544)"><g><path d="M 1.75 -7.28125 L 1.75 0 L 0.796875 0 L 0.796875 -7.28125 Z M 1.75 -7.28125 "/></g></g></g><g fill="#310686" fill-opacity="1"><g transform="translate(223.805182, 227.579544)"><g><path d="M 0.453125 -2.875 C 0.453125 -3.457031 0.566406 -3.96875 0.796875 -4.40625 C 1.035156 -4.851562 1.363281 -5.195312 1.78125 -5.4375 C 2.195312 -5.6875 2.660156 -5.8125 3.171875 -5.8125 C 3.617188 -5.8125 4.03125 -5.707031 4.40625 -5.5 C 4.789062 -5.300781 5.085938 -5.035156 5.296875 -4.703125 L 5.296875 -7.71875 L 6.25 -7.71875 L 6.25 0 L 5.296875 0 L 5.296875 -1.078125 C 5.109375 -0.734375 4.828125 -0.453125 4.453125 -0.234375 C 4.085938 -0.015625 3.65625 0.09375 3.15625 0.09375 C 2.65625 0.09375 2.195312 -0.03125 1.78125 -0.28125 C 1.363281 -0.53125 1.035156 -0.878906 0.796875 -1.328125 C 0.566406 -1.785156 0.453125 -2.300781 0.453125 -2.875 Z M 5.296875 -2.875 C 5.296875 -3.300781 5.207031 -3.675781 5.03125 -4 C 4.851562 -4.320312 4.613281 -4.566406 4.3125 -4.734375 C 4.019531 -4.898438 3.695312 -4.984375 3.34375 -4.984375 C 2.988281 -4.984375 2.664062 -4.898438 2.375 -4.734375 C 2.082031 -4.566406 1.847656 -4.320312 1.671875 -4 C 1.503906 -3.6875 1.421875 -3.3125 1.421875 -2.875 C 1.421875 -2.4375 1.503906 -2.054688 1.671875 -1.734375 C 1.847656 -1.410156 2.082031 -1.160156 2.375 -0.984375 C 2.664062 -0.816406 2.988281 -0.734375 3.34375 -0.734375 C 3.695312 -0.734375 4.019531 -0.816406 4.3125 -0.984375 C 4.613281 -1.160156 4.851562 -1.410156 5.03125 -1.734375 C 5.207031 -2.054688 5.296875 -2.4375 5.296875 -2.875 Z M 5.296875 -2.875 "/></g></g></g><g fill="#310686" fill-opacity="1"><g transform="translate(230.863463, 227.579544)"><g><path d="M 6.015625 -3.078125 C 6.015625 -2.898438 6.003906 -2.707031 5.984375 -2.5 L 1.421875 -2.5 C 1.453125 -1.9375 1.644531 -1.492188 2 -1.171875 C 2.351562 -0.859375 2.78125 -0.703125 3.28125 -0.703125 C 3.6875 -0.703125 4.023438 -0.796875 4.296875 -0.984375 C 4.578125 -1.179688 4.773438 -1.441406 4.890625 -1.765625 L 5.90625 -1.765625 C 5.75 -1.210938 5.441406 -0.765625 4.984375 -0.421875 C 4.523438 -0.078125 3.957031 0.09375 3.28125 0.09375 C 2.738281 0.09375 2.25 -0.0234375 1.8125 -0.265625 C 1.382812 -0.515625 1.050781 -0.863281 0.8125 -1.3125 C 0.570312 -1.757812 0.453125 -2.28125 0.453125 -2.875 C 0.453125 -3.457031 0.566406 -3.972656 0.796875 -4.421875 C 1.035156 -4.867188 1.367188 -5.210938 1.796875 -5.453125 C 2.222656 -5.691406 2.71875 -5.8125 3.28125 -5.8125 C 3.820312 -5.8125 4.300781 -5.691406 4.71875 -5.453125 C 5.132812 -5.222656 5.453125 -4.898438 5.671875 -4.484375 C 5.898438 -4.066406 6.015625 -3.597656 6.015625 -3.078125 Z M 5.046875 -3.28125 C 5.046875 -3.632812 4.960938 -3.941406 4.796875 -4.203125 C 4.640625 -4.472656 4.421875 -4.675781 4.140625 -4.8125 C 3.867188 -4.945312 3.566406 -5.015625 3.234375 -5.015625 C 2.753906 -5.015625 2.34375 -4.859375 2 -4.546875 C 1.664062 -4.242188 1.476562 -3.820312 1.4375 -3.28125 Z M 5.046875 -3.28125 "/></g></g></g><g fill="#310686" fill-opacity="1"><g transform="translate(237.337034, 227.579544)"><g><path d="M 3.59375 -5.828125 C 4.289062 -5.828125 4.851562 -5.613281 5.28125 -5.1875 C 5.707031 -4.769531 5.921875 -4.164062 5.921875 -3.375 L 5.921875 0 L 4.984375 0 L 4.984375 -3.234375 C 4.984375 -3.804688 4.84375 -4.242188 4.5625 -4.546875 C 4.28125 -4.847656 3.890625 -5 3.390625 -5 C 2.890625 -5 2.488281 -4.84375 2.1875 -4.53125 C 1.894531 -4.21875 1.75 -3.757812 1.75 -3.15625 L 1.75 0 L 0.796875 0 L 0.796875 -5.71875 L 1.75 -5.71875 L 1.75 -4.90625 C 1.9375 -5.195312 2.191406 -5.421875 2.515625 -5.578125 C 2.835938 -5.742188 3.195312 -5.828125 3.59375 -5.828125 Z M 3.59375 -5.828125 "/></g></g></g><g fill="#310686" fill-opacity="1"><g transform="translate(244.019419, 227.579544)"><g><path d="M 1.96875 -4.9375 L 1.96875 -1.5625 C 1.96875 -1.28125 2.023438 -1.082031 2.140625 -0.96875 C 2.253906 -0.851562 2.457031 -0.796875 2.75 -0.796875 L 3.453125 -0.796875 L 3.453125 0 L 2.59375 0 C 2.070312 0 1.675781 -0.117188 1.40625 -0.359375 C 1.144531 -0.609375 1.015625 -1.007812 1.015625 -1.5625 L 1.015625 -4.9375 L 0.265625 -4.9375 L 0.265625 -5.71875 L 1.015625 -5.71875 L 1.015625 -7.15625 L 1.96875 -7.15625 L 1.96875 -5.71875 L 3.453125 -5.71875 L 3.453125 -4.9375 Z M 1.96875 -4.9375 "/></g></g></g><g fill="#310686" fill-opacity="1"><g transform="translate(247.82004, 227.579544)"><g><path d="M 1.296875 -6.65625 C 1.109375 -6.65625 0.953125 -6.71875 0.828125 -6.84375 C 0.703125 -6.96875 0.640625 -7.117188 0.640625 -7.296875 C 0.640625 -7.472656 0.703125 -7.625 0.828125 -7.75 C 0.953125 -7.875 1.109375 -7.9375 1.296875 -7.9375 C 1.472656 -7.9375 1.617188 -7.875 1.734375 -7.75 C 1.859375 -7.625 1.921875 -7.472656 1.921875 -7.296875 C 1.921875 -7.117188 1.859375 -6.96875 1.734375 -6.84375 C 1.617188 -6.71875 1.472656 -6.65625 1.296875 -6.65625 Z M 1.75 -5.71875 L 1.75 0 L 0.796875 0 L 0.796875 -5.71875 Z M 1.75 -5.71875 "/></g></g></g><g fill="#310686" fill-opacity="1"><g transform="translate(250.388582, 227.579544)"><g><path d="M 1.96875 -4.9375 L 1.96875 -1.5625 C 1.96875 -1.28125 2.023438 -1.082031 2.140625 -0.96875 C 2.253906 -0.851562 2.457031 -0.796875 2.75 -0.796875 L 3.453125 -0.796875 L 3.453125 0 L 2.59375 0 C 2.070312 0 1.675781 -0.117188 1.40625 -0.359375 C 1.144531 -0.609375 1.015625 -1.007812 1.015625 -1.5625 L 1.015625 -4.9375 L 0.265625 -4.9375 L 0.265625 -5.71875 L 1.015625 -5.71875 L 1.015625 -7.15625 L 1.96875 -7.15625 L 1.96875 -5.71875 L 3.453125 -5.71875 L 3.453125 -4.9375 Z M 1.96875 -4.9375 "/></g></g></g><g fill="#310686" fill-opacity="1"><g transform="translate(254.189188, 227.579544)"><g><path d="M 5.734375 -5.71875 L 2.28125 2.6875 L 1.296875 2.6875 L 2.4375 -0.0625 L 0.125 -5.71875 L 1.171875 -5.71875 L 2.96875 -1.078125 L 4.75 -5.71875 Z M 5.734375 -5.71875 "/></g></g></g></svg>